<svg xmlns="http://www.w3.org/2000/svg" width="286.29" height="139.48" fill="none"><path fill="#000" d="M20.8 13.066c.036-.299.057-.607.057-.922 0-.172.002-.372-.02-.599 2.658-.037 4.988-1.953 4.988-4.155 0-1.121-.73-1.967-1.142-2.473.092-.02.185-.04.28-.064.389.34 1.493 1.543 1.493 3.062 0 2.643-2.64 5.096-5.656 5.151zm-2.677-9.204a1.816 1.816 0 0 0-.332-.791c.009-.27.12-.527.553-.315-.235.24-.053.666-.053.666s.48-.223.38-.54c.712.17.2 1.127-.548.98zm-.618 1.357a2.786 2.786 0 0 0-.554-1.106c-.235-.278-.623-.607-1.146-.607-.238 0-.638.112-.893.22-.095-.173-.28-.591-.28-.78 0-.193.327-.389.952-.389 1.376 0 2.197.622 2.197 1.665 0 .367-.145.7-.276.997zm3.534 17.744c.16 0 .237.025.33.06.396 1.078 1.923 3.112 1.987 3.2l.013.018.023-.006c.375-.06 1.33-.204 2.13-.204h.02c.086 0 .185 0 .247.062.052.052.078.142.078.272 0 .199-.084.539-.186.684-.28-.305-.734-.443-1.462-.443-.219 0-.478.066-.618.103l-.057.012-.065.017.42.42c.648.649 1.208 1.208 1.208 1.58 0 .224-.219.516-.419.646-.044-.682-.732-1.594-1.403-2.105l-.057-.043-.01.24c-.01.163-.025.407-.025.668 0 1.299-.132 1.496-.581 1.496a.82.82 0 0 1-.24-.044c.253-.314.353-.727.353-1.453l-.004-.335-.004-.27c0-.297.031-.517.055-.694l.013-.1-.07-.01a7.267 7.267 0 0 0-.9-.082c-.642 0-1.076.058-1.391.354-.208-.168-.421-.457-.421-.64 0-.27.168-.292.389-.292.112 0 .216.016.36.033.276.042.69.103 1.545.103h.054l-.018-.052c-.216-.62-.81-1.522-1.764-2.682.086-.31.17-.513.47-.513zm-8.232 3.195-.018.052h.054c.853 0 1.269-.061 1.545-.103.144-.017.248-.033.36-.033.22 0 .39.021.39.292 0 .183-.214.472-.42.64-.317-.296-.751-.354-1.391-.354-.3 0-.692.053-.902.082l-.033.004-.037.006.012.1c.025.177.056.397.056.695l-.004.27-.004.334c0 .726.1 1.14.354 1.453a.837.837 0 0 1-.241.044c-.45 0-.581-.197-.581-1.496 0-.261-.014-.505-.023-.668l-.013-.241-.056.044c-.67.51-1.36 1.423-1.402 2.105-.201-.13-.42-.422-.42-.646 0-.372.56-.931 1.208-1.58l.372-.372.048-.048-.122-.029a2.617 2.617 0 0 0-.619-.103c-.727 0-1.18.138-1.461.443-.102-.145-.186-.485-.186-.684 0-.13.026-.22.078-.272.062-.062.161-.062.248-.062h.018c.8 0 1.758.144 2.131.204l.023.006.013-.019c.065-.087 1.59-2.121 1.988-3.2.09-.034.17-.06.33-.06.3 0 .383.204.47.515-.955 1.159-1.55 2.06-1.765 2.681zM8.684 7.915c0-1.52 1.105-2.723 1.495-3.062.093.023.186.044.28.064-.414.506-1.144 1.352-1.144 2.472 0 2.226 2.376 4.157 5.066 4.157-.017.191-.026.391-.026.598 0 .328.018.634.05.922-3.042-.019-5.721-2.49-5.721-5.151zm20.408 4.687c1.365 2.16 2.433 2.124 4.047 2.124-1.335-1.024-2.218-2.335-2.639-3.005L28.007 7.73a5.905 5.905 0 0 0-1.835-3.244c.321-.12.588-.249.748-.37-1.628 0-3.241-.828-4.13-.828-.57 0-.937.342-.937.793.036.503.554 1.014 1.51 1.014.216 0 .493-.028.797-.079.517.722.935 1.374.935 2.305 0 1.748-2.088 3.11-4.196 3.11-.12 0-.234-.005-.352-.013-.191-.434-.827-1.16-.827-1.988 0-1.389.905-2.523.905-3.898 0-.855-.416-1.385-.576-1.605.259-.24.542-.535.608-.738-.15.066-.329.074-.589.074-1.01 0-1.835-.263-2.637-.263-.459 0-.582.141-.582.276 0 .05.007.1.02.124a2.7 2.7 0 0 0-.521-.145 4.07 4.07 0 0 0-.764-.068c-.976 0-1.323.41-1.323.76 0 .296.234.838.499 1.251.38-.192.837-.321 1.045-.321.519 0 .979.494 1.223 1.078-.348.043-.415.057-.767.057-.95 0-1.597-.34-1.73-.34-.012 0-.038.007-.038.028 0 .134.27.486.8.68.7.255 1.748.362 1.923.391 0 .031-.177.362-.376.426a.216.216 0 0 1-.124.004c-.73-.144-.935-.205-1.861-.558-.028-.01-.046.007-.046.036 0 .367.95 1.177 1.8 1.488-.71.907-1.597 1.836-2.016 3.251a5.173 5.173 0 0 1-.352.013c-2.108 0-4.196-1.362-4.196-3.11 0-.93.418-1.583.935-2.305.304.05.58.079.797.079.956 0 1.474-.511 1.511-1.014 0-.45-.367-.792-.939-.792-.888 0-2.5.827-4.13.827.161.121.428.25.748.37A5.91 5.91 0 0 0 7.133 7.73L4.64 11.72c-.42.67-1.305 1.982-2.64 3.005 1.613 0 2.683.036 4.048-2.124l1.279-2.047c.094.266.21.525.348.778l-2.543 4.07c-.423.676-1.3 1.975-2.64 3.005 1.613 0 2.683.037 4.048-2.121l2.188-3.506c.164.174.336.345.517.508l-3.088 4.947c-.424.676-1.296 1.973-2.638 3.002 1.613 0 2.682.038 4.046-2.122l3.011-4.822c.199.125.401.246.612.361L7.512 20.54c-.424.676-1.296 1.969-2.639 3.002 1.614 0 2.683.037 4.048-2.122l3.784-6.06c.224.085.451.168.682.24L9.11 22.45c-.418.667-1.31 1.984-2.637 3.002 1.612 0 2.682.037 4.046-2.122l4.558-7.297c.046.008.092.015.137.024.124.395.21.763.21 1.13 0 2.293-1.503 4.318-3.309 5.882.116.05.318.068.503.068a4.7 4.7 0 0 0 .783-.05c-.42.952-1.318 2.18-1.771 2.816-.59-.107-1.45-.19-2.013-.19-.59 0-.656.344-.656.652 0 .535.25.961.54 1.199.11-.274.33-.64 1.418-.64.021 0 .059.003.11.007-.318.354-1.314 1.16-1.314 1.808 0 .43.47 1.074 1.09 1.074-.035-.139-.031-.266-.031-.362 0-.525.465-1.14.858-1.57-.012.128-.005.115-.005.264 0 1.242.112 1.813.9 1.813.387 0 .653-.212.745-.276-.512-.47-.538-.842-.538-1.538l.005-.603c.001-.16-.001-.371-.027-.523.282-.039.396-.039.614-.039 0 0 1.118-.09 1.39.494.303-.28.744-.673.744-1.106 0-.287-.136-.611-.713-.611-.219 0-.905.133-1.48.133.155-.343.841-1.349 1.437-2.078.091.283.231.588.543.839.044-.47.319-1.955 1.052-2.823.085.587.2 1.189.2 2.457 0 3.087-.741 5.367-2.316 5.802.205.356.639.678 1.088.678.576 0 .89-.652 1.21-1.267.166.453.626 1.566 1.087 1.566.462 0 .923-1.113 1.09-1.566.318.615.633 1.267 1.21 1.267.448 0 .882-.322 1.087-.678-1.575-.435-2.317-2.715-2.317-5.802 0-1.268.114-1.87.2-2.457.734.868 1.01 2.353 1.052 2.823.313-.251.454-.556.544-.84.594.73 1.282 1.736 1.437 2.08-.575 0-1.263-.134-1.48-.134-.576 0-.712.324-.712.61 0 .434.441.828.745 1.107.268-.583 1.39-.494 1.39-.494.216 0 .33 0 .613.039-.027.152-.028.363-.027.523.003.244.003.421.004.603 0 .696-.026 1.067-.538 1.538.092.064.358.276.745.276.788 0 .901-.57.901-1.813 0-.15.004-.136-.006-.264.393.43.858 1.045.858 1.57 0 .096.006.223-.033.362.621 0 1.093-.645 1.093-1.074 0-.649-.996-1.454-1.316-1.808.052-.004.09-.007.11-.007 1.09 0 1.31.366 1.418.64a1.55 1.55 0 0 0 .542-1.199c0-.308-.067-.652-.656-.652-.563 0-1.422.083-2.014.19-.454-.635-1.35-1.864-1.77-2.815.17.029.41.049.782.049.187 0 .387-.017.503-.068-1.805-1.564-3.31-3.589-3.31-5.882 0-.367.087-.735.211-1.13.044-.01.092-.016.138-.024l4.557 7.297c1.364 2.159 2.435 2.122 4.047 2.122-1.328-1.018-2.22-2.335-2.638-3.002L21.752 15.6c.232-.073.46-.156.684-.241l3.783 6.06c1.365 2.159 2.434 2.122 4.048 2.122-1.343-1.033-2.215-2.326-2.639-3.002l-3.675-5.885c.208-.115.412-.236.61-.361l3.012 4.822c1.365 2.16 2.433 2.122 4.046 2.122-1.342-1.03-2.213-2.326-2.638-3.002l-3.088-4.947c.181-.163.354-.334.516-.508l2.19 3.506c1.364 2.158 2.434 2.12 4.047 2.12-1.341-1.03-2.216-2.328-2.64-3.003l-2.541-4.07c.136-.254.252-.513.348-.779z" clip-path="url(#a)" transform="translate(29.155 27.045)"/><path fill="#000" d="M41.236 3.334h4.667v26.682h-4.667z" clip-path="url(#b)" transform="translate(29.155 27.045)"/><path fill="red" d="M41.236 30.016h4.667v26.682h-4.667z" clip-path="url(#c)" transform="translate(29.155 27.045)"/><path fill="#fc0" d="M41.236 56.698h4.667V83.38h-4.667z" clip-path="url(#d)" transform="translate(29.155 27.045)"/><g fill="#000"><path d="M62.292 5.762c0-1.713-1.04-2.817-3.664-2.817H56.5V13.99h2.256c2.64 0 3.824-1.265 3.824-2.994 0-1.473-.944-2.434-2.08-2.658v-.032c.96-.256 1.792-1.008 1.792-2.545zm-1.408.048c0 1.265-.784 2.05-2.272 2.05h-.72V4.05h.736c1.552 0 2.256.752 2.256 1.76zm.208 5.091c0 1.265-.704 1.937-2.336 1.937h-.864V8.964h.944c1.44 0 2.256.752 2.256 1.937zm7.36 2.225h.032v.865h1.184V6.307h-1.296v5.875c-.256.32-.768.848-1.552.848-.864 0-1.28-.512-1.28-1.777V6.307h-1.296v5.042c0 2.082.848 2.834 2.208 2.834 1.168 0 1.856-.784 2-1.057zm6.064-5.907c.896 0 1.328.528 1.328 1.825v4.947h1.296V8.948c0-2.081-.864-2.834-2.24-2.834-1.2 0-1.888.785-2.032 1.057h-.032v-.864h-1.184v7.684h1.296V8.068c.256-.32.784-.849 1.568-.849zm7.248 5.811c-.896 0-1.696-.704-1.696-2.817 0-2.177.944-2.946 2.144-2.946.464 0 .768.128.992.272v4.739a1.716 1.716 0 0 1-1.44.752zm1.52.144h.032v.817H84.5V2.528l-1.296.144v3.682a2.878 2.878 0 0 0-1.088-.192c-1.632 0-3.392.993-3.392 4.098 0 2.802 1.232 3.923 2.688 3.923 1.216 0 1.728-.769 1.872-1.009zm5.696-6.003c.816 0 1.248.624 1.248 1.681 0 .24-.016.448-.032.56h-2.784c.064-1.44.656-2.241 1.568-2.241zm2.592 6.1-.48-.913a2.23 2.23 0 0 1-1.616.672c-1.296 0-2-.848-2.08-2.641h3.92c.048-.368.096-.833.096-1.489 0-1.841-.896-2.786-2.352-2.786-1.6 0-2.928 1.217-2.928 3.939 0 2.897 1.216 4.13 3.152 4.13 1.456 0 2.08-.688 2.288-.912zm5.44-6.34c-.256-.256-.768-.817-1.952-.817-1.248 0-2.224.849-2.224 1.985 0 1.057.576 1.681 1.536 2.29l.48.304c.736.464 1.12.72 1.12 1.457 0 .496-.416.88-1.184.88-.832 0-1.312-.496-1.552-.752l-.624 1.024c.304.32.928.881 2.16.881 1.568 0 2.448-.945 2.448-2.161 0-1.137-.64-1.761-1.68-2.386l-.48-.288c-.688-.416-1.008-.736-1.008-1.313 0-.448.368-.816 1.056-.816.72 0 1.168.448 1.344.64zm4.608.336c.8 0 1.152.528 1.152 1.777v4.947h1.296V8.836c0-.288-.016-.56-.064-.8.288-.337.768-.769 1.472-.769.864 0 1.328.528 1.328 1.777v4.947h1.296V8.836c0-1.825-.8-2.722-2.336-2.722-.992 0-1.696.593-2.032 1.025-.352-.688-.992-1.025-1.856-1.025a2.29 2.29 0 0 0-1.92 1.057h-.032v-.865H98.74v7.685h1.296V8.067c.224-.272.72-.8 1.584-.8zm9.072-2.818c.512 0 .864-.384.864-.928 0-.528-.352-.913-.864-.913-.528 0-.88.385-.88.913 0 .544.352.928.88.928zm.64 1.858h-1.296v7.684h1.296zm4.848.912c.896 0 1.328.528 1.328 1.825v4.947h1.296V8.948c0-2.081-.864-2.834-2.24-2.834-1.2 0-1.888.785-2.032 1.057h-.032v-.864h-1.184v7.684h1.296V8.068c.256-.32.784-.849 1.568-.849zm5.216-2.77c.512 0 .864-.384.864-.928 0-.528-.352-.913-.864-.913-.528 0-.88.385-.88.913 0 .544.352.928.88.928zm.64 1.858h-1.296v7.684h1.296zm5.856.624c-.256-.256-.768-.817-1.952-.817-1.248 0-2.224.849-2.224 1.986 0 1.056.576 1.68 1.536 2.289l.48.304c.736.464 1.12.72 1.12 1.457 0 .496-.416.88-1.184.88-.832 0-1.312-.496-1.552-.752l-.624 1.025c.304.32.928.88 2.16.88 1.568 0 2.448-.945 2.448-2.161 0-1.137-.64-1.761-1.68-2.386l-.48-.288c-.688-.416-1.008-.736-1.008-1.313 0-.448.368-.816 1.056-.816.72 0 1.168.448 1.344.64zm5.216 6.916-.176-1.04a1.54 1.54 0 0 1-.8.223c-.656 0-.912-.32-.912-1.408V7.363h1.68l.16-1.056h-1.84V4.16h-1.152l-.144 2.146-.928.192v.864h.928v4.435c0 1.697.672 2.385 1.984 2.385.688 0 1.088-.256 1.2-.336zm3.648-6.676c.816 0 1.248.624 1.248 1.681 0 .24-.016.448-.032.56h-2.784c.064-1.44.656-2.24 1.568-2.24zm2.592 6.1-.48-.913a2.23 2.23 0 0 1-1.616.672c-1.296 0-2-.848-2.08-2.641h3.92c.048-.368.096-.833.096-1.489 0-1.841-.896-2.786-2.352-2.786-1.6 0-2.928 1.217-2.928 3.939 0 2.897 1.216 4.13 3.152 4.13 1.456 0 2.08-.688 2.288-.912zm5.104-6.98c-.128-.048-.336-.128-.704-.128-.976 0-1.392.576-1.616 1.184h-.032v-1.04h-1.184v7.684h1.296V8.356c.192-.512.624-1.04 1.44-1.04.352 0 .576.095.64.127zm1.776-1.841c.512 0 .864-.385.864-.929 0-.528-.352-.912-.864-.912-.528 0-.88.384-.88.912 0 .544.352.929.88.929zm.64 1.857h-1.296v7.684h1.296zm6.144 6.82h.032v.864h1.184V6.307h-1.296v5.875c-.256.32-.768.848-1.552.848-.864 0-1.28-.512-1.28-1.777V6.307h-1.296v5.043c0 2.08.848 2.833 2.208 2.833 1.168 0 1.856-.784 2-1.056zm6.08-5.86c.8 0 1.152.529 1.152 1.777v4.947h1.296V8.836c0-.288-.016-.56-.064-.8.288-.337.768-.769 1.472-.769.864 0 1.328.529 1.328 1.777v4.947h1.296V8.836c0-1.825-.8-2.722-2.336-2.722-.992 0-1.696.593-2.032 1.025-.352-.688-.992-1.025-1.856-1.025a2.29 2.29 0 0 0-1.92 1.057h-.032v-.864h-1.184v7.684h1.296V8.068c.224-.273.72-.8 1.584-.8z" clip-path="url(#e)" transform="translate(29.155 27.045)"/><path d="m59.46 23.372.16-1.057h-1.728V20.94c0-1.009.336-1.345.944-1.345.336 0 .576.128.704.208l.272-1.073a2.186 2.186 0 0 0-1.088-.288c-1.136 0-2.128.673-2.128 2.354v1.536l-.928.177v.864h.928V30h1.296v-6.628zm5.936-3.266c0-.496-.336-.816-.768-.816s-.768.32-.768.816.336.817.768.817.768-.32.768-.817zm-2.464 0c0-.496-.336-.816-.768-.816s-.768.32-.768.816.336.817.768.817.768-.32.768-.817zm1.968 9.03h.032V30h1.184v-7.685H64.82v5.876c-.256.32-.768.848-1.552.848-.864 0-1.28-.512-1.28-1.777v-4.947h-1.296v5.043c0 2.081.848 2.834 2.208 2.834 1.168 0 1.856-.785 2-1.057zm6.736-6.837c-.128-.048-.336-.128-.704-.128-.976 0-1.392.577-1.616 1.185h-.032v-1.04H68.1V30h1.296v-5.635c.192-.513.624-1.041 1.44-1.041.352 0 .576.096.64.128zm10.208-.528c0-1.713-1.04-2.818-3.664-2.818h-2.128V30h2.256c2.64 0 3.824-1.264 3.824-2.993 0-1.473-.944-2.434-2.08-2.658v-.032c.96-.256 1.792-1.008 1.792-2.545zm-1.408.048c0 1.265-.784 2.05-2.272 2.05h-.72v-3.81h.736c1.552 0 2.256.752 2.256 1.76zm.208 5.091c0 1.265-.704 1.937-2.336 1.937h-.864v-3.874h.944c1.44 0 2.256.752 2.256 1.937zm3.856-6.452c.512 0 .864-.384.864-.928 0-.529-.352-.913-.864-.913-.528 0-.88.384-.88.913 0 .544.352.928.88.928zm.64 1.857h-1.296V30h1.296zm3.264-3.778-1.296.144v9.638c0 1.36.592 1.825 1.456 1.825.576 0 .912-.144 1.04-.208l-.112-.96c-.08.031-.24.095-.48.095-.448 0-.608-.224-.608-.864zM93.46 29.04c-.896 0-1.696-.704-1.696-2.817 0-2.178.944-2.946 2.144-2.946.464 0 .768.128.992.272v4.739a1.716 1.716 0 0 1-1.44.752zm1.52.144h.032V30h1.184V18.537l-1.296.144v3.682a2.877 2.877 0 0 0-1.088-.192c-1.632 0-3.392.992-3.392 4.098 0 2.802 1.232 3.923 2.688 3.923 1.216 0 1.728-.769 1.872-1.01zm7.36-.048h.032V30h1.184v-7.685h-1.296v5.876c-.256.32-.768.848-1.552.848-.864 0-1.28-.512-1.28-1.777v-4.947h-1.296v5.043c0 2.081.848 2.834 2.208 2.834 1.168 0 1.856-.785 2-1.057zm6.064-5.907c.896 0 1.328.528 1.328 1.825V30h1.296v-5.043c0-2.081-.864-2.834-2.24-2.834-1.2 0-1.888.785-2.032 1.057h-.032v-.865h-1.184V30h1.296v-5.924c.256-.32.784-.848 1.568-.848zm8.208 1.473c0 1.104-.608 1.537-1.344 1.537-.704 0-1.328-.433-1.328-1.537 0-1.105.624-1.537 1.36-1.537.704 0 1.312.432 1.312 1.537zm1.888 5.891c0-1.457-1.088-2.033-2.544-2.033h-.976c-.56 0-.784-.224-.784-.544 0-.4.368-.609.624-.72.128.015.256.015.4.015 1.504 0 2.656-.976 2.656-2.61 0-.512-.128-.992-.368-1.376h.96l.176-1.009h-2.336a2.712 2.712 0 0 0-1.024-.192c-1.44 0-2.608.849-2.608 2.578 0 1.216.528 1.985 1.312 2.353v.032c-.192.096-.928.416-.928 1.249 0 .48.176.832.496 1.072v.032c-.352.193-1.28.737-1.28 1.874 0 1.328.88 2.08 2.512 2.08 2.272 0 3.712-1.152 3.712-2.8zm-3.616 1.697c-.912 0-1.36-.416-1.36-1.233 0-.768.416-1.136.784-1.344.176.032.384.048.592.048h.976c.784 0 1.296.288 1.296 1.024 0 .785-.72 1.505-2.288 1.505zm4.88-.048c.848-.304 1.856-.992 1.856-2.45 0-1.056-.432-1.568-1.056-1.568-.448 0-.832.288-.832.864 0 .593.384.913.88.913h.048c0 .928-.496 1.345-1.168 1.68zM128.036 30v-4.755h3.632V24.14h-3.632v-4.082h3.936l.096-1.105h-5.424V30zm8.272-4.323h-.4c-1.744 0-3.2.593-3.2 2.37 0 1.248.88 2.145 2.048 2.145.976 0 1.44-.656 1.616-1.04h.032c.016.384.032.624.048.848h1.232a13.97 13.97 0 0 1-.096-1.601v-3.506c0-1.937-.832-2.77-2.4-2.77-1.232 0-1.968.593-2.304.929l.544.864c.288-.256.8-.688 1.568-.688.832 0 1.312.416 1.312 1.713zm0 .96v1.698c-.16.24-.528.752-1.28.752-.64 0-1.024-.4-1.024-1.184 0-.849.656-1.201 1.888-1.25zm6.112-3.361c.8 0 1.152.528 1.152 1.777V30h1.296v-5.155c0-.288-.016-.56-.064-.8.288-.337.768-.77 1.472-.77.864 0 1.328.53 1.328 1.778V30h1.296v-5.155c0-1.825-.8-2.722-2.336-2.722-.992 0-1.696.593-2.032 1.025-.352-.689-.992-1.025-1.856-1.025a2.29 2.29 0 0 0-1.92 1.057h-.032v-.865h-1.184V30h1.296v-5.924c.224-.272.72-.8 1.584-.8zm9.072-2.818c.512 0 .864-.384.864-.928 0-.529-.352-.913-.864-.913-.528 0-.88.384-.88.913 0 .544.352.928.88.928zm.64 1.857h-1.296V30h1.296zm3.264-3.778-1.296.144v9.638c0 1.36.592 1.825 1.456 1.825.576 0 .912-.144 1.04-.208l-.112-.96c-.08.031-.24.095-.48.095-.448 0-.608-.224-.608-.864zm3.024 1.921c.512 0 .864-.384.864-.928 0-.529-.352-.913-.864-.913-.528 0-.88.384-.88.913 0 .544.352.928.88.928zm.64 1.857h-1.296V30h1.296zm4.48.865c.816 0 1.248.624 1.248 1.68 0 .24-.016.45-.032.561h-2.784c.064-1.44.656-2.241 1.568-2.241zm2.592 6.1-.48-.913a2.23 2.23 0 0 1-1.616.672c-1.296 0-2-.848-2.08-2.641h3.92c.048-.368.096-.833.096-1.49 0-1.84-.896-2.785-2.352-2.785-1.6 0-2.928 1.217-2.928 3.939 0 2.897 1.216 4.13 3.152 4.13 1.456 0 2.08-.688 2.288-.913zm1.392 2.961c.848-.304 1.856-.992 1.856-2.45 0-1.056-.432-1.568-1.056-1.568-.448 0-.832.288-.832.864 0 .593.384.913.88.913h.048c0 .928-.496 1.345-1.168 1.68zm11.632-12.647c-.24-.192-.944-.832-2.416-.832-1.728 0-2.832 1.088-2.832 2.513 0 1.52.704 2.257 1.92 3.282l.896.752c.928.785 1.376 1.297 1.376 2.258 0 .752-.608 1.376-1.696 1.376-1.136 0-1.872-.704-2.144-.96l-.56 1.217c.32.288 1.152.992 2.736.992 1.984 0 3.072-1.137 3.072-2.817 0-1.441-.816-2.306-1.856-3.17l-.896-.737c-1.008-.816-1.472-1.36-1.472-2.225 0-.688.496-1.28 1.456-1.28 1.024 0 1.664.512 1.84.688zm4.4 3.586c.816 0 1.248.624 1.248 1.681 0 .24-.016.448-.032.56h-2.784c.064-1.44.656-2.241 1.568-2.241zm2.592 6.1-.48-.913a2.23 2.23 0 0 1-1.616.672c-1.296 0-2-.848-2.08-2.641h3.92c.048-.368.096-.833.096-1.489 0-1.841-.896-2.786-2.352-2.786-1.6 0-2.928 1.217-2.928 3.939 0 2.897 1.216 4.13 3.152 4.13 1.456 0 2.08-.688 2.288-.912zm4.432-6.052c.896 0 1.328.528 1.328 1.825V30h1.296v-5.043c0-2.081-.864-2.834-2.24-2.834-1.2 0-1.888.785-2.032 1.057h-.032v-.864h-1.184V30h1.296v-5.923c.256-.32.784-.849 1.568-.849zm5.216-2.77c.512 0 .864-.384.864-.928 0-.528-.352-.913-.864-.913-.528 0-.88.385-.88.913 0 .544.352.929.88.929zm.64 1.858h-1.296V30h1.296zm1.632 3.842c0 2.881 1.296 4.034 2.992 4.034 1.68 0 3.072-1.169 3.072-4.034 0-2.834-1.296-4.035-2.992-4.035-1.648 0-3.072 1.201-3.072 4.035zm4.72 0c0 2.033-.624 2.881-1.68 2.881s-1.696-.848-1.696-2.881.624-2.93 1.68-2.93 1.696.897 1.696 2.93zM209.3 22.3c-.128-.048-.336-.128-.704-.128-.976 0-1.392.576-1.616 1.184h-.032v-1.04h-1.184V30h1.296v-5.635c.192-.513.624-1.04 1.44-1.04.352 0 .576.095.64.127zm3.424.88c.816 0 1.248.624 1.248 1.681 0 .24-.016.448-.032.56h-2.784c.064-1.44.656-2.241 1.568-2.241zm2.592 6.1-.48-.913a2.23 2.23 0 0 1-1.616.672c-1.296 0-2-.848-2.08-2.641h3.92c.048-.368.096-.833.096-1.489 0-1.841-.896-2.786-2.352-2.786-1.6 0-2.928 1.217-2.928 3.939 0 2.897 1.216 4.13 3.152 4.13 1.456 0 2.08-.688 2.288-.912zm4.432-6.052c.896 0 1.328.528 1.328 1.825V30h1.296v-5.043c0-2.081-.864-2.834-2.24-2.834-1.2 0-1.888.785-2.032 1.057h-.032v-.864h-1.184V30h1.296v-5.923c.256-.32.784-.849 1.568-.849zm4.384 9.013c.848-.304 1.856-.992 1.856-2.45 0-1.056-.432-1.568-1.056-1.568-.448 0-.832.288-.832.864 0 .593.384.913.88.913h.048c0 .929-.496 1.345-1.168 1.68z" clip-path="url(#f)" transform="translate(29.155 27.045)"/><path d="M57.892 46.009v-4.755h3.632V40.15h-3.632v-4.083h3.936l.096-1.104H56.5v11.046zm8.848-7.7c-.128-.048-.336-.128-.704-.128-.976 0-1.392.576-1.616 1.184h-.032v-1.04h-1.184v7.684H64.5v-5.635c.192-.512.624-1.04 1.44-1.04.352 0 .576.095.64.127zm4.192 3.378h-.4c-1.744 0-3.2.592-3.2 2.369 0 1.249.88 2.145 2.048 2.145.976 0 1.44-.656 1.616-1.04h.032c.016.384.032.624.048.848h1.232a13.965 13.965 0 0 1-.096-1.6v-3.507c0-1.937-.832-2.77-2.4-2.77-1.232 0-1.968.593-2.304.929l.544.865c.288-.257.8-.689 1.568-.689.832 0 1.312.416 1.312 1.713zm0 .96v1.697c-.16.24-.528.753-1.28.753-.64 0-1.024-.4-1.024-1.185 0-.849.656-1.2 1.888-1.249zm7.392 2.498h.032v.864h1.184v-7.684h-1.296V44.2c-.256.32-.768.849-1.552.849-.864 0-1.28-.513-1.28-1.777v-4.947h-1.296v5.043c0 2.08.848 2.833 2.208 2.833 1.168 0 1.856-.784 2-1.056zm5.696-5.956c.816 0 1.248.625 1.248 1.681 0 .24-.016.448-.032.56h-2.784c.064-1.44.656-2.24 1.568-2.24zm2.592 6.1-.48-.913a2.23 2.23 0 0 1-1.616.673c-1.296 0-2-.849-2.08-2.642h3.92c.048-.368.096-.832.096-1.489 0-1.84-.896-2.785-2.352-2.785-1.6 0-2.928 1.216-2.928 3.938 0 2.897 1.216 4.13 3.152 4.13 1.456 0 2.08-.688 2.288-.912zm4.432-6.052c.896 0 1.328.528 1.328 1.825v4.947h1.296v-5.043c0-2.081-.864-2.834-2.24-2.834-1.2 0-1.888.785-2.032 1.057h-.032v-.864H88.18v7.684h1.296v-5.923c.256-.32.784-.849 1.568-.849zm12.112 5.907h.032v.865h1.184v-7.684h-1.296V44.2c-.256.32-.768.849-1.552.849-.864 0-1.28-.513-1.28-1.777v-4.947h-1.296v5.043c0 2.08.848 2.833 2.208 2.833 1.168 0 1.856-.784 2-1.056zm6.064-5.907c.896 0 1.328.528 1.328 1.825v4.947h1.296v-5.043c0-2.081-.864-2.834-2.24-2.834-1.2 0-1.888.785-2.032 1.057h-.032v-.864h-1.184v7.684h1.296v-5.923c.256-.32.784-.849 1.568-.849zm7.248 5.811c-.896 0-1.696-.704-1.696-2.817 0-2.177.944-2.946 2.144-2.946.464 0 .768.128.992.272v4.74a1.716 1.716 0 0 1-1.44.752zm1.52.145h.032v.816h1.184V34.547l-1.296.144v3.682a2.877 2.877 0 0 0-1.088-.192c-1.632 0-3.392.993-3.392 4.098 0 2.802 1.232 3.923 2.688 3.923 1.216 0 1.728-.769 1.872-1.009zm8.848-10.23h-1.392v8.42c0 1.185-.368 1.57-1.088 1.57-.368 0-.576-.113-.704-.193l-.224 1.153c.144.08.464.24.992.24 1.456 0 2.416-.688 2.416-2.625zm6.352 10.182h.032v.864h1.184v-7.684h-1.296V44.2c-.256.32-.768.849-1.552.849-.864 0-1.28-.513-1.28-1.777v-4.947h-1.296v5.043c0 2.08.848 2.833 2.208 2.833 1.168 0 1.856-.784 2-1.056zm6.848-4.435c0 1.105-.608 1.537-1.344 1.537-.704 0-1.328-.432-1.328-1.537s.624-1.537 1.36-1.537c.704 0 1.312.433 1.312 1.537zm1.888 5.892c0-1.457-1.088-2.034-2.544-2.034h-.976c-.56 0-.784-.224-.784-.544 0-.4.368-.608.624-.72.128.016.256.016.4.016 1.504 0 2.656-.977 2.656-2.61 0-.512-.128-.992-.368-1.377h.96l.176-1.008h-2.336a2.712 2.712 0 0 0-1.024-.192c-1.44 0-2.608.848-2.608 2.577 0 1.217.528 1.985 1.312 2.353v.032c-.192.097-.928.417-.928 1.25 0 .48.176.832.496 1.072v.032c-.352.192-1.28.736-1.28 1.873 0 1.329.88 2.081 2.512 2.081 2.272 0 3.712-1.153 3.712-2.801zm-3.616 1.696c-.912 0-1.36-.416-1.36-1.232 0-.769.416-1.137.784-1.345.176.032.384.048.592.048h.976c.784 0 1.296.288 1.296 1.025 0 .784-.72 1.504-2.288 1.504zm7.456-9.109c.816 0 1.248.625 1.248 1.681 0 .24-.016.448-.032.56h-2.784c.064-1.44.656-2.24 1.568-2.24zm2.592 6.1-.48-.913a2.23 2.23 0 0 1-1.616.673c-1.296 0-2-.849-2.08-2.642h3.92c.048-.368.096-.832.096-1.489 0-1.84-.896-2.785-2.352-2.785-1.6 0-2.928 1.216-2.928 3.938 0 2.898 1.216 4.13 3.152 4.13 1.456 0 2.08-.688 2.288-.912zm4.432-6.052c.896 0 1.328.529 1.328 1.825v4.947h1.296v-5.043c0-2.081-.864-2.833-2.24-2.833-1.2 0-1.888.784-2.032 1.056h-.032v-.864h-1.184v7.684h1.296v-5.923c.256-.32.784-.849 1.568-.849zm7.248 5.812c-.896 0-1.696-.705-1.696-2.818 0-2.177.944-2.946 2.144-2.946.464 0 .768.128.992.272v4.74a1.716 1.716 0 0 1-1.44.752zm1.52.144h.032v.816h1.184V34.547l-1.296.144v3.682a2.877 2.877 0 0 0-1.088-.192c-1.632 0-3.392.993-3.392 4.099 0 2.801 1.232 3.922 2.688 3.922 1.216 0 1.728-.769 1.872-1.009z" clip-path="url(#g)" transform="translate(29.155 27.045)"/></g><defs><clipPath id="g"><path fill="#fff" d="M0 0h226v85H0z"/></clipPath><clipPath id="f"><path fill="#fff" d="M0 0h226v85H0z"/></clipPath><clipPath id="e"><path fill="#fff" d="M0 0h226v85H0z"/></clipPath><clipPath id="d"><path fill="#fff" d="M0 0h226v85H0z"/></clipPath><clipPath id="c"><path fill="#fff" d="M0 0h226v85H0z"/></clipPath><clipPath id="b"><path fill="#fff" d="M0 0h226v85H0z"/></clipPath><clipPath id="a"><path fill="#fff" d="M0 0h226v85H0z"/></clipPath></defs></svg>