<?xml version="1.0" encoding="UTF-8"?>
<!-- Generator: Adobe Illustrator 25.4.1, SVG Export Plug-In . SVG Version: 6.00 Build 0)  -->
<svg xmlns="http://www.w3.org/2000/svg" xmlns:xlink="http://www.w3.org/1999/xlink" version="1.1" id="Ebene_1" x="0px" y="0px" viewBox="0 0 1200 487.9" style="enable-background:new 0 0 1200 487.9;" xml:space="preserve">
<style type="text/css">
	.st0{fill:none;}
	.st1{fill:#003063;}
	.st2{fill:#D60D4C;}
</style>
<rect class="st0" width="1200" height="572"></rect>
<g>
	<g>
		<g>
			<g>
				<g>
					<g>
						<g>
							<g>
								<path class="st1" d="M466.2,350.9c-1.6-2.1-4.7-3.6-7.6-3.6c-3.4,0-7.3,1.6-7.3,5.7c0,3.8,3.2,4.9,7.9,6.4          c5.3,1.6,12.1,4,12.1,12.1c0,8.9-7,13.3-15.1,13.3c-5.4,0-11-2-14.3-5.9l5.3-4.9c2,2.8,5.8,4.6,9.1,4.6          c3.5,0,7.5-1.7,7.5-6.2c0-4.3-4.3-5.6-9.6-7.2c-5-1.6-10.5-4-10.5-11.8c0-8.5,7.7-12.2,15.2-12.2c4.2,0,8.9,1.5,12.1,4.5          L466.2,350.9z"></path>
								<path class="st1" d="M497.3,363.4c-1.1-1.6-3.5-2.8-5.8-2.8c-5.2,0-7.8,4.6-7.8,9s2.6,9,8,9c2.2,0,4.6-0.9,5.9-2.5l4.4,4.5          c-2.4,2.5-6.2,3.9-10.4,3.9c-8.3,0-15.3-5.5-15.3-14.9c0-9.1,6.8-14.9,15.1-14.9c4.1,0,8.4,1.6,10.6,4.4L497.3,363.4z"></path>
								<path class="st1" d="M532.7,366.2v17.6h-7v-15.5c0-3.3-0.7-7.5-5.2-7.5s-6.6,3.8-6.6,7.6v15.4h-7v-44.4h7v20.1h0.1          c1.1-2.4,4.2-4.8,8.4-4.8C529.7,354.8,532.7,360.4,532.7,366.2z"></path>
								<path class="st1" d="M540.8,339.4h7v44.4h-7V339.4z"></path>
								<path class="st1" d="M583,371.9h-21.4c0.3,4,3.9,6.9,8,6.9c3.5,0,5.9-1.4,7.5-3.6l4.7,3.8c-2.8,3.8-6.8,5.6-12.1,5.6          c-8.7,0-15.1-5.6-15.1-14.7s6.4-15.1,14.9-15.1c7.9,0,13.6,5.1,13.6,15.3C583.1,370.7,583.1,371.3,583,371.9z M576,366.9          c0-3.6-2-6.8-6.6-6.8c-4.2,0-7.5,2.9-7.8,6.8H576z"></path>
								<path class="st1" d="M605.3,363.1c-1.2-1.6-3.6-3-6.2-3c-2.2,0-4.5,0.8-4.5,3s2.2,2.8,6.1,3.7c4.2,1,9.1,2.9,9.1,8.4          c0,6.9-5.6,9.4-11.7,9.4c-4.3,0-8.9-1.6-11.6-4.6l4.6-4.3c1.5,2,4.2,3.5,7.2,3.5c2,0,4.5-0.8,4.5-3.4c0-2.4-2.2-3-6.5-4          c-4.2-1-8.3-2.7-8.3-8c0-6.3,5.6-9,11.2-9c4,0,8.3,1.4,10.6,4.3L605.3,363.1z"></path>
								<path class="st1" d="M612.7,355.6h7.6l5.9,20.2h0.1l6-20.2h7.5l6.1,20.2h0.1l6-20.2h7.3l-9.7,28.2h-7.2l-6.4-19.7h0          l-6.3,19.7h-7.2L612.7,355.6z"></path>
								<path class="st1" d="M667.5,341.8c2.6,0,4.6,1.8,4.6,4.2c0,2.4-2,4.2-4.6,4.2s-4.5-2-4.5-4.2S665,341.8,667.5,341.8z           M664.1,355.6h7v28.2h-7V355.6z"></path>
								<path class="st1" d="M707.9,355.6v25.6c0,10.1-4.9,16.6-15.9,16.6c-4.6,0-10.3-1.6-14-4.6l4-5.5c2.7,2.6,6.3,4,9.9,4          c6.8,0,8.9-4.1,8.9-9.7v-2h-0.1c-2,2.8-5.3,4.2-9.2,4.2c-8.5,0-13.9-6.7-13.9-14.7c0-8.2,5.3-14.8,13.8-14.8          c3.9,0,7.6,1.6,9.7,5h0.1v-4.2L707.9,355.6L707.9,355.6z M684.7,369.5c0,4.5,3,8.9,8,8.9c5.2,0,8.4-4.2,8.4-8.9          c0-4.9-3.2-9-8.3-9C687.7,360.5,684.7,364.5,684.7,369.5z"></path>
								<path class="st1" d="M729.1,372.3H715v-6h14.1V372.3z"></path>
								<path class="st1" d="M736.9,342.2h7.4V359h19.4v-16.8h7.4v41.5h-7.4v-18.4h-19.4v18.4h-7.4V342.2z"></path>
								<path class="st1" d="M793.6,354.8c8.5,0,15.3,5.9,15.3,14.8s-6.8,15-15.3,15s-15.3-6.2-15.3-15S785.1,354.8,793.6,354.8z           M793.6,378.7c5.6,0,8.2-4.8,8.2-9.1s-2.6-9-8.2-9c-5.6,0-8.2,4.6-8.2,9C785.4,374,788,378.7,793.6,378.7z"></path>
								<path class="st1" d="M815.6,339.4h7v44.4h-7V339.4z"></path>
								<path class="st1" d="M846.8,363.1c-1.2-1.6-3.6-3-6.2-3c-2.2,0-4.5,0.8-4.5,3s2.2,2.8,6.1,3.7c4.2,1,9.1,2.9,9.1,8.4          c0,6.9-5.6,9.4-11.7,9.4c-4.3,0-8.9-1.6-11.6-4.6l4.6-4.3c1.5,2,4.2,3.5,7.2,3.5c2,0,4.5-0.8,4.5-3.4c0-2.4-2.2-3-6.5-4          c-4.2-1-8.3-2.7-8.3-8c0-6.3,5.6-9,11.2-9c4,0,8.3,1.4,10.6,4.3L846.8,363.1z"></path>
								<path class="st1" d="M854.6,361.2v-5.6h4.9v-8.2h6.9v8.2h7v5.6h-7v13.1c0,2.5,0.6,4.3,3.7,4.3c0.9,0,2.2-0.2,3-0.6l0.2,5.5          c-1.2,0.5-3.1,0.8-4.7,0.8c-7.5,0-9.2-4.6-9.2-10v-13.1L854.6,361.2L854.6,361.2z"></path>
								<path class="st1" d="M905.1,371.9h-21.4c0.3,4,3.9,6.9,8,6.9c3.5,0,5.9-1.4,7.5-3.6l4.7,3.8c-2.8,3.8-6.8,5.6-12.1,5.6          c-8.7,0-15.1-5.6-15.1-14.7s6.4-15.1,14.9-15.1c7.9,0,13.6,5.1,13.6,15.3C905.1,370.7,905.1,371.3,905.1,371.9z           M898.1,366.9c0-3.6-2-6.8-6.6-6.8c-4.2,0-7.5,2.9-7.8,6.8H898.1z"></path>
								<path class="st1" d="M915.2,341.8c2.6,0,4.6,1.8,4.6,4.2c0,2.4-2,4.2-4.6,4.2s-4.5-2-4.5-4.2S912.7,341.8,915.2,341.8z           M911.8,355.6h7v28.2h-7V355.6z"></path>
								<path class="st1" d="M927,355.6h6.7v4.5h0.1c1.2-2.8,4.6-5.3,8.7-5.3c7.3,0,10.4,5.6,10.4,11.4v17.6h-7v-15.6          c0-3.4-0.8-7.5-5.3-7.5s-6.6,3.9-6.6,7.6v15.5h-7L927,355.6L927,355.6z"></path>
								<path class="st1" d="M445.9,412.6h13.8c10.4,0,21.8,6.9,21.8,20.8s-11.4,20.8-21.8,20.8h-13.8V412.6z M450.2,450.4h8.4          c12.5,0,18.5-8.5,18.5-17c0-8.6-6-17-18.5-17h-8.4V450.4z"></path>
								<path class="st1" d="M514.7,441.5h-22.8c0.1,5.5,4.4,10,10,10c4.1,0,7.3-2.3,8.8-4.8l3,2.4c-3.2,4.1-7.3,5.8-11.8,5.8          c-8.2,0-14.2-6.2-14.2-14.4s6-14.4,13.9-14.4c8.6,0,13.1,6.1,13.1,13.6C514.8,440.1,514.8,440.8,514.7,441.5z M510.7,438.3          c-0.2-5.2-3.4-9-9.1-9c-5.3,0-9.3,4.3-9.6,9H510.7z"></path>
								<path class="st1" d="M522.5,426.7h3.8c0.1,1.5,0.2,3.5,0.2,4.7h0.1c1.5-3.2,4.9-5.4,8.8-5.4c1,0,1.8,0.1,2.6,0.3l-0.5,3.8          c-0.5-0.2-1.8-0.4-2.8-0.4c-4.2,0-8,3-8,10.4v14.1h-4v-21.4C522.8,431.3,522.7,428.6,522.5,426.7z"></path>
								<path class="st1" d="M583.5,441.5h-22.8c0.1,5.5,4.4,10,10,10c4.1,0,7.3-2.3,8.8-4.8l3,2.4c-3.2,4.1-7.3,5.8-11.8,5.8          c-8.2,0-14.2-6.2-14.2-14.4s6-14.4,13.8-14.4c8.6,0,13.1,6.1,13.1,13.6C583.5,440.1,583.5,440.8,583.5,441.5z M579.5,438.3          c-0.2-5.2-3.4-9-9.1-9c-5.3,0-9.3,4.3-9.6,9H579.5z"></path>
								<path class="st1" d="M611.6,433c-1.3-2.1-4-3.6-7-3.6c-6.4,0-10.5,4.8-10.5,11.1c0,6.2,4,11,10.5,11c3.5,0,5.9-1.5,7.5-3.6          l3,2.2c-2.3,2.9-5.7,4.8-10.4,4.8c-8.9,0-14.7-6.2-14.7-14.4s5.8-14.4,14.7-14.4c3.7,0,7.9,1.6,10.2,4.8L611.6,433z"></path>
								<path class="st1" d="M625.2,431.2c1.5-3.2,5.3-5.2,9.2-5.2c7,0,10.4,4.5,10.4,11.3v16.8h-4v-15.2c0-5.8-1.7-9.6-7.5-9.6          c-4.2,0-8.3,3.4-8.3,10.7v14.1h-4v-44.4h4v21.4h0.2V431.2z"></path>
								<path class="st1" d="M667.2,430h-7.8v16c0,4.1,1.7,5,4.1,5c1.1,0,2.4-0.4,3.5-0.9l0.2,3.5c-1.4,0.5-2.9,0.8-4.7,0.8          c-2.9,0-7-1.3-7-7.3V430h-5.7v-3.4h5.7v-7.8h4v7.8h7.8L667.2,430L667.2,430z"></path>
								<path class="st1" d="M697.6,441.5h-22.8c0.1,5.5,4.4,10,10,10c4.1,0,7.3-2.3,8.8-4.8l3,2.4c-3.2,4.1-7.3,5.8-11.8,5.8          c-8.2,0-14.2-6.2-14.2-14.4s6-14.4,13.8-14.4c8.6,0,13.1,6.1,13.1,13.6C697.7,440.1,697.7,440.8,697.6,441.5z M693.6,438.3          c-0.2-5.2-3.4-9-9.1-9c-5.3,0-9.3,4.3-9.6,9H693.6z"></path>
								<path class="st1" d="M750.6,448L750.6,448l0.1-35.4h4.2v41.5h-5.3l-24.2-35.7h-0.1v35.7h-4.2v-41.5h5.3L750.6,448z"></path>
								<path class="st1" d="M778.1,454.9c-8.5,0-14.6-6.2-14.6-14.4s6.1-14.4,14.6-14.4c8.6,0,14.7,6.2,14.7,14.4          C792.8,448.7,786.7,454.9,778.1,454.9z M778.1,429.3c-6.3,0-10.4,4.9-10.4,11.1s4,11,10.4,11s10.5-4.9,10.5-11          S784.5,429.3,778.1,429.3z"></path>
								<path class="st1" d="M800.5,426.7h3.8c0.1,1.5,0.2,3.5,0.2,4.7h0.1c1.5-3.2,4.9-5.4,8.8-5.4c1,0,1.8,0.1,2.6,0.3l-0.5,3.8          c-0.5-0.2-1.8-0.4-2.8-0.4c-4.2,0-8,3-8,10.4v14.1h-4v-21.4C800.8,431.3,800.7,428.6,800.5,426.7z"></path>
								<path class="st1" d="M833.3,454.9c-8.6,0-14.2-6.3-14.2-14.4s5.6-14.4,14.2-14.4c3.9,0,8,1.9,10.4,5.5h0.1V410h4v44.4h-4          v-4.6h-0.1C841.3,453,837.2,454.9,833.3,454.9z M833.7,451.5c6.2,0,10.6-4.8,10.6-11s-4.4-11.1-10.6-11.1          c-6.6,0-10.4,5-10.4,11.1C823.3,446.5,827.1,451.5,833.7,451.5z"></path>
								<path class="st1" d="M882.9,441.5h-22.8c0.1,5.5,4.4,10,10,10c4.1,0,7.3-2.3,8.8-4.8l3,2.4c-3.2,4.1-7.3,5.8-11.8,5.8          c-8.2,0-14.2-6.2-14.2-14.4s6-14.4,13.8-14.4c8.6,0,13.1,6.1,13.1,13.6C882.9,440.1,882.9,440.8,882.9,441.5z M878.9,438.3          c-0.2-5.2-3.4-9-9.1-9c-5.3,0-9.3,4.3-9.6,9H878.9z"></path>
								<path class="st1" d="M894.5,426.7c0.1,1.5,0.2,3.5,0.2,4.7h0.1c1.5-3.2,5.5-5.4,9.4-5.4c7,0,10.4,4.5,10.4,11.3v16.8h-4          v-15.2c0-5.8-1.7-9.6-7.5-9.6c-4.2,0-8.3,3.4-8.3,10.7v14.1h-4v-21.4c0-1.5-0.1-4.2-0.2-6H894.5L894.5,426.7z"></path>
							</g>
						</g>
					</g>
				</g>
				<polygon class="st2" points="811.3,112.4 784.2,112.4 769.7,139 763.9,112.4 753.7,139 743.5,112.4 737.7,139 723.2,112.4       696,112.4 695.9,134.6 729,148.1 696.3,162.4 729.9,174 698.4,190.3 732.4,198.6 703.2,217.8 736.8,221.5 712.3,244.3       744.8,244.3 727.8,267.7 753.7,287.7 779.5,267.7 762.6,244.3 795.1,244.3 770.6,221.5 804.1,217.8 774.9,198.6 809,190.3       777.4,174 811,162.4 778.3,148.1 811.4,134.6     "></polygon>
			</g>
			<path class="st1" d="M107,264.1c13.1,14,30.4,23.2,54.1,23.7c25.4,0.5,53.9-14.8,53.9-44.9c0-31.5-24.8-40.8-49.1-50.1     c-15.5-5.9-41.9-14.2-41.9-40.7c0-20,17.8-33.5,40.6-32.9c13.1,0.3,26.1,6.6,38.8,17.1l6.9-8c-15.4-13.5-31.2-19.4-46-19.7     c-28.4-0.6-51.6,16.1-51.6,43.5c0,33.6,29.2,42.7,47.3,49.9c20.9,8.3,43.5,16.4,43.5,40.9c0,19.8-18.5,34.9-43.6,34.2     c-17.9-0.5-31.9-6.6-44.8-20.3L107,264.1z"></path>
			<polygon class="st1" points="352.8,283.5 364,283.5 364,112.6 352.8,112.6 352.8,189.9 263.3,189.9 263.3,112.6 252.2,112.6      252.2,283.5 263.3,283.5 263.3,200.4 352.8,200.4    "></polygon>
		</g>
	</g>
</g>
<g>
	<path class="st1" d="M570.6,265.6l-13.9-3.5l10.4-2.4l-0.5-2.7h7.2c0,0-4.6-6.2-10.7-5.8l-13.4,6.9c-1.8-0.7-16.9-15.4-16.9-15.4   s12-11.7,5.3-19.9c-5.5-4.1-11.6-7.5-18-10.1c-1.6,0-14.7,11.2-14.7,11.2c5,3.9,9.5,9.7,8.8,15c-0.4,3.5-5.4,7.5-5.4,7.5   c-0.8,2.2,30.2,19.3,30.2,19.3l-3.5,3.1c-1.8,1.9-2.3,4.7-1.4,7.1l4.4-3.5l1.1,1.5l5.3-4.1l2.1,10l3.1-0.3l1,7.5   c5.8-1.9,6.1-10.4,6.1-10.4l-4-9.9l13,9.9l1.7-3.8l6.7,2.1c-0.9-3.4-2.4-6.6-4.5-9.5"></path>
	<path class="st1" d="M660.8,147.4l-9.8,1.4l7.9-9.3l-3.2-3.5l4.3-6.2c-4.3-0.4-8.6,1.5-11.2,5l-6.5,15.7v-12H639l-0.8-7.5   c0,0-5.9,2.7-6.6,12.3l5.9,10.6l-26.2,33.6l0,0c2.8,3.8,4.7,8.2,5.6,12.8v0.7l2.2,9.9l26.4-40.7l7.4,4.7c4.3-0.2,6.2-5.7,6.2-5.7   l-6.5-2.5l-1.1-9.4l7.6,0.5l1.4-2.4l8.3,1.2C668.7,152,665.4,148.2,660.8,147.4"></path>
	<path class="st1" d="M662.4,265l-12.1-5.1l8.2-0.6c0-0.3,1.1-3.7,1-4.2l9.2-0.9c0,0-6.6-6-12.1-5.4l-13.9,5.1l-34.7-27   c4.1-0.7,8.1-1.8,12-3.3c-2.4-3-4-6.4-4.8-10.1l-2.4-10.9c-0.7-4.2-2.4-8.3-5-11.7c-1.4-1.6-2.8-3.2-4.3-4.7l-5.1-4l5.8-0.8   c4.1-0.3,7.4-3.4,8.1-7.5h-24.3v-4.5h24.3c3.7,0.2,7.2-1.2,9.9-3.7c2.6-2.7,4.2-6.2,4.7-10c0-1.3-1-2.3-2.3-2.3l0,0   c-1.3,0-2.4,1.1-2.4,2.4c0,0,0,0,0,0l0,0c-0.5,2.4-1.7,4.7-3.5,6.5c-1.7,1.6-4,2.5-6.4,2.3h-23.9c0-0.7,0-0.3,0.3-0.8   c0.7-2.5,3.5-3.5,6.5-3.5c5.3,0,11.1,0,18.2-0.3c3.3,0,4.9-5.4,4.9-5.4s1.5-8.6,1.5-9.8s-0.5-1.5-2-2c-3.7-0.9-7.3-2.2-10.8-3.9   c-3.2-2.1-6.9-3.5-10.7-4h-14.7c-2.2,0.4-4.2,1.4-6,2.7c-0.8-3-2.9-5.5-5.7-6.9l-6.2-2l2.4,14.4l-3.5,13.1   c-3.1,1.7-6.4,3.2-9.8,4.3h-4.4l3.3,3.5c2.7,1.1,5.6,1.4,8.4,0.7l-0.9,2.9c-3,1.8-6.1,3.4-9.4,4.5l-4.5-0.2l3.5,3.5   c2.6,1.1,5.4,1.3,8.1,0.7l-1.7,5.9c-0.5,3.4-3.6,5.7-6.9,5.4c-5.7,0-77.2-8.5-77.2-8.5c-5.1-0.5-16.4-2.3-16.4-12   c0-9,8.9-10.4,17-10.4h58.3c15.9,0,23.6-8.1,24.3-24c0.6-13.5,8.6-18.9,13.6-18.9h24.3c6.9-3.2,11.5-16,11.5-16s-5.2,1.8-10.6,3.5   h-27.8c-5.9,0-12.7,8.3-15.6,18l0,0c-3-10.2-9.1-18.5-15.7-18.5h-27.8c-5.4-1.6-10.6-3.5-10.6-3.5s4.6,12.8,11.5,16h24.3   c5.1,0,13.6,5.4,13.6,18.9c0,10.4-4.8,14.9-14.7,14.9h-24c0.9-3.7,2.3-7.3,4-10.6l5-4.2h-6.9c-3.9,0-11,11.1-13.6,14.9h-8.6   c1.2-5.4,3.1-10.7,5.4-15.8l6.7-5.1h-9.2c-5,0-14.4,16.3-17.6,20.8c-8.5,0-26,3.1-26,19.7c0,13.3,12.2,19.8,24.7,21.4   c0.5,0,16.6,2.1,16.6,2.1l-13.4,30c-2.3-0.4-4.6-0.5-6.9-0.2c-1.8,0.9-15.9,35-15.9,35l-9.4,0.4c-2.3,1.4-4.2,3.4-5.6,5.7   c-0.6,1.3-0.9,2.7-1,4.1l5.4-1.9l2.4,2.1l5.8-1.7l-4.8,11l3.1,3.2l-1,9c4.8-0.5,8.5-8.1,8.5-8.1l0.5-11.2l4.1,10.4l2.7,0.2l5.4,8.8   c1-0.9,1.8-2.1,2.2-3.5c0.4-2.6,0.5-5.3,0.6-8l-7.5-8.8l9.6,6.9c0-0.3,1.6-1.6,1.8-1.9l9.5,3.7c0,0-2-8.6-4.5-10.4l-15.8-6.1   l37.3-35.2c8.8-7.5,16.7-13.9,20.8-14.5c4.1-0.6,35.8,20.4,41.4,21.2c3.7,0.4,7.5,0.4,11.2,0c-0.5,2-0.5,4.1-0.2,6.2   c1.8,3.5,56,24.3,56,24.3l-6.9,4c-2.3,1.5-3.7,8.5-3.7,8.5l8.6-4.7l2,2.7l6.9-5.6l-1,9.4l3.2,0.4l0.2,11.7c4.5-1.9,7.2-11,7.2-11   v-8.7l9.1,8.2l3.5-3.2l8,3.8c0,0-0.3-8.1-3.3-10.8 M584.8,151.6c-0.7-0.4-0.9-1.3-0.5-2c1.4-2.2,5-7.4,7.7-7.9h1.9   c2.4,0.1,4.8,0.8,6.9,2l2.5,1.2c0.7,0.4,1,1.3,0.6,2c-0.4,0.7-1.2,1-1.9,0.6l-2.5-1.2l-0.9-0.4c0.1,0.5,0.2,1,0.2,1.5   c0,2.9-2.2,5.3-5.1,5.4c-2.4,0-4.6-1.6-5.2-4c-0.6,0.8-1.2,1.6-1.7,2.4c-0.4,0.7-1.3,0.9-1.9,0.5"></path>
	<path class="st1" d="M593.7,149.9c1.5,0,2.7-1.2,2.7-2.7c0-1.5-1.2-2.7-2.7-2.7c-1.5,0-2.7,1.2-2.7,2.7l0,0l0,0   C591,148.7,592.3,149.9,593.7,149.9"></path>
</g>
</svg>
