<?xml version="1.0" encoding="UTF-8"?>
<svg id="Ebene_2" data-name="Ebene 2" xmlns="http://www.w3.org/2000/svg" viewBox="0 0 266.62 134.07">
  <defs>
    <style>
      .cls-1 {
        fill: #e30613;
      }

      .cls-1, .cls-2, .cls-3, .cls-4 {
        stroke-width: 0px;
      }

      .cls-2 {
        fill: #f8d200;
      }

      .cls-3 {
        fill: #001e49;
      }

      .cls-4 {
        fill: #1d1d1b;
      }
    </style>
  </defs>
  <g id="Ebene_1-2" data-name="Ebene 1">
    <g>
      <g>
        <path class="cls-4" d="m5.51,1.3c-.22-.15-.7-.33-1.28-.33-1.28,0-2.53.84-2.53,3.01s.98,3.14,2.36,3.14c.5,0,.9-.09,1.21-.21v-2.09l-.64-.15c-.11-.02-.15-.05-.15-.12,0-.09.07-.22.12-.32h2.39s.01.06.01.12c0,.17-.09.29-.36.37l-.24.06v2.19c-.28.25-1.06.82-2.6.82-1.85,0-3.3-1.14-3.3-3.7C.5,1.39,2.53.31,4.27.31c1.11,0,1.67.31,2.02.47.03.31.06.97.06,1.05,0,.33-.09.54-.37.54-.08,0-.17-.02-.24-.04l-.23-1.03Z"/>
        <path class="cls-4" d="m8.79,5.17c.01,1.3.63,1.91,1.53,1.91.67,0,1.05-.26,1.31-.48.1.08.16.26.16.36,0,.26-.69.86-1.86.86-1.29,0-2.26-.73-2.26-2.56s1.1-2.76,2.3-2.76,1.79.72,1.79,1.77c0,.27-.05.64-.13.9h-2.85Zm1.84-.56c.02-.09.05-.27.05-.45,0-.58-.21-1.07-.82-1.07s-.99.49-1.06,1.52h1.83Z"/>
        <path class="cls-4" d="m15.6,3.19h-1.28v3.93l.71.14c.1.02.15.05.15.14,0,.11-.07.26-.11.29h-2.5s-.01-.06-.01-.09c0-.19.13-.27.33-.35l.36-.13v-3.93h-.78s-.01-.06-.01-.09c0-.2.13-.3.33-.36l.46-.13v-.1c0-1.69,1.03-2.51,1.93-2.51.52,0,.73.23.73.56,0,.26-.16.41-.31.49-.09-.1-.37-.3-.69-.3-.45,0-.61.25-.61.87,0,.33.02,1,.02,1h1.4l-.12.58Z"/>
        <path class="cls-4" d="m21.01,5.1c0,1.82-1.27,2.71-2.55,2.71s-2.39-.84-2.39-2.6,1.26-2.72,2.59-2.72,2.35.79,2.35,2.61Zm-3.41-3.34c-.32,0-.57-.23-.57-.57,0-.36.25-.59.57-.59s.57.23.57.59c0,.34-.24.57-.57.57Zm-.41,3.38c0,1.41.57,2.04,1.34,2.04s1.35-.61,1.35-2.02-.58-2.06-1.35-2.06-1.34.62-1.34,2.04Zm2.31-3.38c-.34,0-.58-.23-.58-.57,0-.36.24-.59.58-.59.32,0,.56.23.56.59,0,.34-.24.57-.56.57Z"/>
        <path class="cls-4" d="m23.45,3.45h.03c.22-.36.61-.97,1.29-.97.49,0,.72.23.72.56,0,.23-.1.43-.19.54-.08-.04-.35-.16-.7-.16-.58,0-.87.23-1.09.54v3.16l.76.14c.11.02.15.05.15.14,0,.11-.08.26-.1.29h-2.54s-.01-.06-.01-.09c0-.19.13-.27.33-.35l.37-.13v-3.88l-.75-.12s-.01-.06-.01-.1c0-.18.14-.3.39-.33l1.43-.14-.06.9Z"/>
        <path class="cls-4" d="m30.4,7.1l.77.11s.01.04.01.08c0,.19-.14.32-.39.34l-1.39.13v-.68h-.03c-.23.33-.67.75-1.49.75-1.03,0-1.99-.66-1.99-2.49,0-1.95,1.37-2.84,2.71-2.84.3,0,.57.05.75.09V.75l-.75-.11s-.01-.07-.01-.12c0-.18.14-.3.39-.33l1.43-.14v7.03Zm-1.06-3.66c-.16-.15-.44-.32-.88-.32-.85,0-1.48.61-1.48,2s.59,1.9,1.29,1.9c.61,0,.93-.28,1.07-.44v-3.14Z"/>
        <path class="cls-4" d="m32.89,5.17c0,1.3.63,1.91,1.53,1.91.67,0,1.05-.26,1.31-.48.1.08.16.26.16.36,0,.26-.69.86-1.86.86-1.29,0-2.26-.73-2.26-2.56s1.1-2.76,2.3-2.76,1.79.72,1.79,1.77c0,.27-.05.64-.13.9h-2.84Zm1.84-.56c.02-.09.05-.27.05-.45,0-.58-.21-1.07-.82-1.07s-.99.49-1.06,1.52h1.83Z"/>
        <path class="cls-4" d="m38.34,3.45h.03c.22-.36.61-.97,1.29-.97.49,0,.72.23.72.56,0,.23-.1.43-.19.54-.08-.04-.35-.16-.7-.16-.58,0-.87.23-1.09.54v3.16l.76.14c.11.02.15.05.15.14,0,.11-.08.26-.1.29h-2.54s-.01-.06-.01-.09c0-.19.13-.27.33-.35l.37-.13v-3.88l-.75-.12s-.01-.06-.01-.1c0-.18.14-.3.39-.33l1.43-.14-.06.9Z"/>
        <path class="cls-4" d="m43.91,3.19h-1.44v3.07c0,.47.15.86.67.86.41,0,.75-.18.83-.25.05.08.09.24.09.35s-.37.6-1.32.6-1.33-.56-1.33-1.36v-3.25h-.79s-.01-.06-.01-.09c0-.2.13-.32.33-.36l.51-.13.24-1.42h.78v1.42h1.55l-.12.58Z"/>
        <path class="cls-4" d="m51.28,7.1l.77.11s.01.04.01.08c0,.19-.14.32-.39.34l-1.39.13v-.68h-.03c-.23.33-.67.75-1.49.75-1.03,0-2-.66-2-2.49,0-1.95,1.36-2.84,2.71-2.84.3,0,.57.05.75.09V.75l-.75-.11s0-.07,0-.12c0-.18.14-.3.39-.33l1.43-.14v7.03Zm-1.06-3.66c-.16-.15-.44-.32-.88-.32-.85,0-1.48.61-1.48,2s.59,1.9,1.29,1.9c.61,0,.93-.28,1.07-.44v-3.14Z"/>
        <path class="cls-4" d="m57.34,7.1l.77.11s.01.04.01.08c0,.19-.14.32-.39.34l-1.39.13v-.69h-.02c-.17.22-.63.76-1.55.76-1.12,0-1.65-.66-1.65-1.9v-2.68l-.75-.12s-.01-.06-.01-.1c0-.18.14-.3.39-.33l1.43-.14v3.31c0,.96.5,1.18.97,1.18.54,0,.89-.23,1.13-.5v-3.3l-.75-.12s0-.06,0-.1c0-.18.14-.3.39-.33l1.43-.14v4.55Z"/>
        <path class="cls-4" d="m60.31,3.45h.03c.22-.36.61-.97,1.29-.97.49,0,.72.23.72.56,0,.23-.1.43-.19.54-.08-.04-.35-.16-.7-.16-.58,0-.87.23-1.09.54v3.16l.76.14c.1.02.15.05.15.14,0,.11-.08.26-.11.29h-2.54s-.01-.06-.01-.09c0-.19.13-.27.33-.35l.37-.13v-3.88l-.75-.12s0-.06,0-.1c0-.18.14-.3.39-.33l1.43-.14-.06.9Z"/>
        <path class="cls-4" d="m65.19,3.12c-.7,0-1.31.5-1.31,1.88s.51,2.09,1.5,2.09c.65,0,1.03-.34,1.2-.5.09.09.17.26.17.36,0,.26-.58.87-1.73.87-1.37,0-2.25-.86-2.25-2.59s1.19-2.73,2.6-2.73c1.16,0,1.45.57,1.45.87,0,.28-.14.55-.54.63-.16-.37-.4-.87-1.09-.87Z"/>
        <path class="cls-4" d="m69.09,3.24h.02c.21-.25.71-.76,1.62-.76,1.05,0,1.65.62,1.65,1.85v2.78l.61.14c.11.02.15.05.15.14,0,.11-.08.26-.1.29h-2.38s-.01-.06-.01-.09c0-.19.13-.28.33-.35l.35-.13v-2.66c0-.89-.48-1.17-1.02-1.17-.65,0-1,.28-1.2.48v3.34l.59.14c.1.02.15.05.15.14,0,.11-.07.26-.1.29h-2.38s0-.06,0-.09c0-.19.13-.28.33-.35l.37-.13V.75l-.75-.11s-.01-.07-.01-.12c0-.18.14-.3.39-.33l1.44-.14v3.18Z"/>
        <path class="cls-4" d="m74.49,3.78c-.37,0-.65-.25-.65-.64s.28-.65.65-.65.66.25.66.65-.29.64-.66.64Zm0,4.04c-.37,0-.65-.25-.65-.64s.28-.65.65-.65.66.25.66.65-.29.64-.66.64Z"/>
      </g>
      <g>
        <path class="cls-4" d="m4.24,118.72c0,.42.16.55.34.55.24,0,.37-.13.4-.18.05.07.13.22.13.32,0,.14-.27.55-.96.55-.48,0-.79-.21-.88-.74h-.02c-.12.2-.5.76-1.38.76-.8,0-1.37-.55-1.37-1.38,0-1.12,1.23-1.54,2.4-1.54h.27v-.47c0-.96-.25-1.33-.9-1.33-.24,0-.45.07-.54.1-.09.2-.18.57-.23.92,0,0-.16.01-.24.01-.36,0-.56-.17-.56-.49,0-.65.86-1.14,1.84-1.14,1.15,0,1.69.63,1.69,1.82v2.26Zm-1.3-1.14c-.85.04-1.33.35-1.33.9,0,.44.25.73.68.73s.76-.28.89-.45v-1.2h-.24Z"/>
        <path class="cls-4" d="m10.24,119.25l.77.11s.01.04.01.08c0,.19-.14.31-.39.34l-1.39.13v-.69h-.02c-.17.22-.63.76-1.55.76-1.12,0-1.65-.66-1.65-1.9v-2.68l-.75-.12s-.01-.06-.01-.1c0-.18.14-.3.39-.33l1.43-.14v3.31c0,.96.5,1.18.97,1.18.54,0,.89-.23,1.13-.5v-3.3l-.75-.12s-.01-.06-.01-.1c0-.18.14-.3.39-.33l1.43-.14v4.54Z"/>
        <path class="cls-4" d="m14.57,115.35h-1.28v3.93l.71.14c.1.02.15.05.15.14,0,.11-.07.26-.11.29h-2.5s-.01-.06-.01-.09c0-.19.13-.27.33-.35l.36-.13v-3.93h-.78s-.01-.06-.01-.09c0-.2.13-.3.33-.36l.46-.13v-.1c0-1.69,1.03-2.51,1.93-2.51.52,0,.73.23.73.56,0,.26-.16.41-.31.49-.09-.1-.37-.3-.69-.3-.45,0-.61.25-.61.87,0,.33.02,1,.02,1h1.4l-.12.58Z"/>
        <path class="cls-4" d="m19.81,115.37h-.85c.2.26.33.58.33.96,0,1.11-.92,1.74-2.07,1.74-.18,0-.34-.02-.49-.05-.15.08-.29.23-.29.47s.17.37.52.37h1.22c.97,0,1.51.44,1.51,1.2,0,1.05-1.03,2.02-2.8,2.02-1.29,0-1.92-.45-1.92-1.22s.58-1.08.95-1.2v-.02c-.27-.15-.43-.4-.43-.73,0-.61.56-.89.76-1v-.02c-.59-.26-.97-.8-.97-1.55,0-1.1.92-1.68,2-1.68.28,0,.56.04.82.13h1.84l-.12.6Zm-3.02,4.43c-.15,0-.27,0-.39-.02-.27.16-.45.42-.45.78,0,.55.34.89,1.1.89,1.02,0,1.65-.47,1.65-1.03,0-.43-.24-.62-.78-.62h-1.13Zm-.46-3.46c0,.83.42,1.15.95,1.15.57,0,.98-.33.98-1.15,0-.75-.41-1.12-.96-1.12s-.97.31-.97,1.12Z"/>
        <path class="cls-4" d="m22.04,115.61h.03c.22-.36.61-.97,1.29-.97.49,0,.72.23.72.56,0,.23-.1.43-.19.54-.08-.04-.35-.16-.7-.16-.58,0-.87.23-1.09.54v3.16l.76.14c.11.02.15.05.15.14,0,.11-.08.26-.1.29h-2.54s-.01-.06-.01-.09c0-.19.13-.27.33-.35l.37-.13v-3.88l-.75-.12s-.01-.06-.01-.1c0-.18.14-.3.39-.33l1.43-.14-.06.9Z"/>
        <path class="cls-4" d="m29.3,119.25l.77.11s.01.04.01.08c0,.19-.14.31-.39.34l-1.39.13v-.69h-.02c-.17.22-.63.76-1.55.76-1.12,0-1.65-.66-1.65-1.9v-2.68l-.75-.12s-.01-.06-.01-.1c0-.18.14-.3.39-.33l1.43-.14v3.31c0,.96.5,1.18.97,1.18.54,0,.89-.23,1.13-.5v-3.3l-.75-.12s0-.06,0-.1c0-.18.14-.3.39-.33l1.43-.14v4.54Z"/>
        <path class="cls-4" d="m35.62,119.27l.62.14c.11.02.15.05.15.14,0,.11-.08.26-.1.29h-2.38s-.01-.06-.01-.09c0-.19.13-.28.33-.35l.35-.13v-2.66c0-.89-.5-1.17-1.02-1.17-.6,0-.99.28-1.21.46v3.36l.6.14c.11.02.15.05.15.14,0,.11-.08.26-.11.29h-2.38s-.01-.06-.01-.09c0-.19.13-.27.33-.35l.37-.13v-3.88l-.75-.12s0-.06,0-.1c0-.18.14-.3.39-.33l1.43-.14-.06.73h.03c.28-.3.76-.8,1.72-.8,1.03,0,1.6.66,1.6,1.85v2.78Z"/>
        <path class="cls-4" d="m41.43,119.25l.77.11s.01.04.01.08c0,.19-.14.31-.39.34l-1.39.13v-.68h-.03c-.23.33-.67.75-1.49.75-1.03,0-1.99-.66-1.99-2.49,0-1.95,1.37-2.83,2.71-2.83.3,0,.57.05.75.09v-1.84l-.75-.11s-.01-.07-.01-.12c0-.18.14-.3.39-.33l1.43-.14v7.03Zm-1.06-3.66c-.16-.15-.44-.32-.88-.32-.85,0-1.48.61-1.48,2s.59,1.9,1.29,1.9c.61,0,.93-.28,1.07-.44v-3.14Z"/>
        <path class="cls-4" d="m46.11,117.32c0,1.3.63,1.91,1.53,1.91.67,0,1.05-.26,1.31-.48.1.08.16.26.16.36,0,.26-.69.86-1.86.86-1.29,0-2.26-.73-2.26-2.56s1.1-2.76,2.3-2.76,1.79.72,1.79,1.77c0,.27-.05.64-.13.9h-2.84Zm1.84-.56c.02-.09.05-.27.05-.45,0-.58-.21-1.07-.82-1.07s-.99.49-1.06,1.52h1.83Z"/>
        <path class="cls-4" d="m51.62,119.27l.62.14c.1.02.15.05.15.14,0,.11-.08.26-.1.29h-2.4s-.01-.06-.01-.09c0-.19.13-.27.33-.35l.37-.13v-3.88l-.75-.12s0-.06,0-.1c0-.18.14-.3.39-.33l1.43-.14v4.57Zm-.54-5.61c-.39,0-.68-.26-.68-.67s.29-.67.68-.67.69.27.69.67-.32.67-.69.67Z"/>
        <path class="cls-4" d="m57.95,119.27l.62.14c.11.02.15.05.15.14,0,.11-.08.26-.1.29h-2.38s-.01-.06-.01-.09c0-.19.13-.28.33-.35l.35-.13v-2.66c0-.89-.5-1.17-1.02-1.17-.6,0-.99.28-1.21.46v3.36l.6.14c.11.02.15.05.15.14,0,.11-.08.26-.11.29h-2.38s-.01-.06-.01-.09c0-.19.13-.27.33-.35l.37-.13v-3.88l-.75-.12s0-.06,0-.1c0-.18.14-.3.39-.33l1.43-.14-.06.73h.03c.28-.3.76-.8,1.72-.8,1.03,0,1.6.66,1.6,1.85v2.78Z"/>
        <path class="cls-4" d="m60.36,117.32c.01,1.3.63,1.91,1.53,1.91.67,0,1.05-.26,1.31-.48.1.08.16.26.16.36,0,.26-.69.86-1.86.86-1.29,0-2.26-.73-2.26-2.56s1.1-2.76,2.3-2.76,1.79.72,1.79,1.77c0,.27-.05.64-.13.9h-2.85Zm1.84-.56c.02-.09.05-.27.05-.45,0-.58-.21-1.07-.82-1.07s-.99.49-1.06,1.52h1.83Z"/>
        <path class="cls-4" d="m66.62,115.42c-.12-.08-.38-.21-.69-.21-.35,0-.7.15-.7.59s.49.73,1,1.03c.63.38,1.3.79,1.3,1.63s-.71,1.51-1.87,1.51c-.59,0-1.11-.18-1.33-.31-.04-.26-.07-.54-.07-.81,0-.42.12-.59.43-.59.05,0,.14.01.14.01l.22.89c.11.07.41.21.71.21.51,0,.84-.2.84-.64s-.5-.7-.98-1c-.64-.41-1.28-.82-1.28-1.72,0-.82.71-1.37,1.72-1.37.61,0,1.04.21,1.23.39.02.15.04.37.04.58,0,.37-.07.61-.45.61-.05,0-.13-.01-.13-.01l-.13-.79Z"/>
        <path class="cls-4" d="m74.4,116.09v.02c1.02.17,1.69.75,1.69,1.7,0,1.18-.97,2.03-2.86,2.03h-2.67s-.01-.06-.01-.12c0-.17.08-.31.36-.38l.44-.1v-6.07l-.64-.15c-.11-.02-.15-.05-.15-.12,0-.09.07-.22.12-.31h2.47c1.87,0,2.76.66,2.76,1.83,0,1-.61,1.47-1.51,1.67Zm-1.34-2.86h-.57v2.65h.56c1.2,0,1.7-.59,1.7-1.33,0-.86-.54-1.31-1.69-1.31Zm.13,3.25h-.69v2.71h.63c1.23,0,1.77-.58,1.77-1.4s-.58-1.31-1.71-1.31Z"/>
        <path class="cls-4" d="m78.16,117.32c.01,1.3.63,1.91,1.53,1.91.67,0,1.05-.26,1.31-.48.1.08.16.26.16.36,0,.26-.69.86-1.86.86-1.29,0-2.26-.73-2.26-2.56s1.1-2.76,2.3-2.76,1.79.72,1.79,1.77c0,.27-.05.64-.13.9h-2.85Zm1.84-.56c.02-.09.05-.27.05-.45,0-.58-.21-1.07-.82-1.07s-.99.49-1.06,1.52h1.83Z"/>
        <path class="cls-4" d="m84.42,115.42c-.12-.08-.38-.21-.69-.21-.35,0-.7.15-.7.59s.49.73,1,1.03c.63.38,1.3.79,1.3,1.63s-.71,1.51-1.87,1.51c-.59,0-1.11-.18-1.33-.31-.04-.26-.07-.54-.07-.81,0-.42.12-.59.43-.59.05,0,.14.01.14.01l.22.89c.1.07.41.21.71.21.51,0,.84-.2.84-.64s-.5-.7-.98-1c-.64-.41-1.28-.82-1.28-1.72,0-.82.71-1.37,1.72-1.37.61,0,1.04.21,1.23.39.02.15.04.37.04.58,0,.37-.07.61-.45.61-.05,0-.13-.01-.13-.01l-.13-.79Z"/>
        <path class="cls-4" d="m88.58,115.27c-.7,0-1.31.5-1.31,1.88s.51,2.09,1.5,2.09c.65,0,1.03-.34,1.2-.5.09.09.17.26.17.36,0,.26-.58.87-1.73.87-1.37,0-2.25-.86-2.25-2.59s1.19-2.73,2.6-2.73c1.16,0,1.45.57,1.45.87,0,.28-.14.55-.54.63-.16-.37-.4-.87-1.09-.87Z"/>
        <path class="cls-4" d="m92.47,115.4h.02c.21-.25.71-.76,1.62-.76,1.05,0,1.65.62,1.65,1.85v2.78l.61.14c.11.02.15.05.15.14,0,.11-.08.26-.1.29h-2.38s-.01-.06-.01-.09c0-.19.13-.28.33-.35l.35-.13v-2.66c0-.89-.48-1.17-1.02-1.17-.65,0-1,.28-1.2.48v3.34l.59.14c.1.02.15.05.15.14,0,.11-.07.26-.1.29h-2.38s0-.06,0-.09c0-.19.13-.28.33-.35l.37-.13v-6.37l-.75-.11s-.01-.07-.01-.12c0-.18.14-.3.39-.33l1.44-.14v3.18Z"/>
        <path class="cls-4" d="m98.65,119.27l.61.14c.11.02.15.05.15.14,0,.11-.07.26-.1.29h-2.39s0-.06,0-.09c0-.19.13-.28.33-.35l.37-.13v-6.37l-.75-.11s-.01-.07-.01-.12c0-.18.14-.3.39-.33l1.43-.14v7.05Z"/>
        <path class="cls-4" d="m104.75,119.25l.77.11s.01.04.01.08c0,.19-.14.31-.39.34l-1.39.13v-.69h-.02c-.17.22-.63.76-1.55.76-1.12,0-1.65-.66-1.65-1.9v-2.68l-.75-.12s-.01-.06-.01-.1c0-.18.14-.3.39-.33l1.43-.14v3.31c0,.96.5,1.18.97,1.18.54,0,.89-.23,1.13-.5v-3.3l-.75-.12s0-.06,0-.1c0-.18.14-.3.39-.33l1.43-.14v4.54Z"/>
        <path class="cls-4" d="m108.53,115.42c-.12-.08-.38-.21-.69-.21-.35,0-.7.15-.7.59s.49.73,1,1.03c.63.38,1.3.79,1.3,1.63s-.71,1.51-1.87,1.51c-.59,0-1.11-.18-1.33-.31-.04-.26-.07-.54-.07-.81,0-.42.12-.59.43-.59.05,0,.14.01.14.01l.22.89c.1.07.41.21.71.21.51,0,.84-.2.84-.64s-.5-.7-.98-1c-.64-.41-1.28-.82-1.28-1.72,0-.82.71-1.37,1.72-1.37.61,0,1.04.21,1.23.39.02.15.04.37.04.58,0,.37-.07.61-.45.61-.05,0-.13-.01-.13-.01l-.13-.79Z"/>
        <path class="cls-4" d="m112.66,115.42c-.12-.08-.38-.21-.69-.21-.35,0-.7.15-.7.59s.49.73,1,1.03c.63.38,1.3.79,1.3,1.63s-.71,1.51-1.87,1.51c-.59,0-1.11-.18-1.33-.31-.04-.26-.07-.54-.07-.81,0-.42.12-.59.43-.59.05,0,.14.01.14.01l.22.89c.1.07.41.21.71.21.51,0,.84-.2.84-.64s-.5-.7-.98-1c-.64-.41-1.28-.82-1.28-1.72,0-.82.71-1.37,1.72-1.37.61,0,1.04.21,1.23.39.02.15.04.37.04.58,0,.37-.07.61-.45.61-.05,0-.13-.01-.13-.01l-.13-.79Z"/>
        <path class="cls-4" d="m115.51,117.32c.01,1.3.63,1.91,1.53,1.91.67,0,1.05-.26,1.31-.48.1.08.16.26.16.36,0,.26-.69.86-1.86.86-1.29,0-2.26-.73-2.26-2.56s1.1-2.76,2.3-2.76,1.79.72,1.79,1.77c0,.27-.05.64-.13.9h-2.85Zm1.84-.56c.02-.09.05-.27.05-.45,0-.58-.21-1.07-.82-1.07s-.99.49-1.06,1.52h1.83Z"/>
        <path class="cls-4" d="m121.77,115.42c-.12-.08-.38-.21-.69-.21-.35,0-.7.15-.7.59s.49.73,1,1.03c.63.38,1.3.79,1.3,1.63s-.71,1.51-1.87,1.51c-.59,0-1.11-.18-1.33-.31-.04-.26-.07-.54-.07-.81,0-.42.12-.59.43-.59.05,0,.14.01.14.01l.22.89c.1.07.41.21.71.21.51,0,.84-.2.84-.64s-.5-.7-.98-1c-.64-.41-1.28-.82-1.28-1.72,0-.82.71-1.37,1.72-1.37.61,0,1.04.21,1.23.39.02.15.04.37.04.58,0,.37-.07.61-.45.61-.05,0-.13-.01-.13-.01l-.13-.79Z"/>
        <path class="cls-4" d="m5.08,131.25l.77.11s.01.04.01.08c0,.19-.14.31-.39.34l-1.39.12v-.68h-.03c-.23.33-.67.75-1.49.75-1.03,0-2-.66-2-2.49,0-1.95,1.36-2.83,2.71-2.83.3,0,.57.05.75.09v-1.84l-.75-.1s0-.07,0-.12c0-.18.14-.3.39-.33l1.43-.14v7.03Zm-1.06-3.66c-.16-.15-.44-.31-.88-.31-.85,0-1.48.61-1.48,1.99s.59,1.9,1.29,1.9c.61,0,.93-.28,1.07-.44v-3.14Z"/>
        <path class="cls-4" d="m7.57,129.32c.01,1.3.63,1.91,1.53,1.91.67,0,1.05-.26,1.31-.48.1.08.16.26.16.36,0,.26-.69.86-1.86.86-1.29,0-2.26-.74-2.26-2.56s1.1-2.76,2.3-2.76,1.79.72,1.79,1.77c0,.27-.05.64-.13.9h-2.85Zm1.84-.56c.02-.09.05-.27.05-.45,0-.58-.21-1.07-.82-1.07s-.99.49-1.06,1.52h1.83Z"/>
        <path class="cls-4" d="m13.83,127.42c-.12-.08-.38-.21-.69-.21-.35,0-.7.15-.7.59s.49.74,1,1.03c.63.38,1.3.79,1.3,1.63s-.71,1.51-1.87,1.51c-.59,0-1.11-.18-1.33-.32-.04-.26-.07-.54-.07-.81,0-.42.12-.59.43-.59.05,0,.14.01.14.01l.22.89c.11.07.41.21.71.21.51,0,.84-.2.84-.64s-.5-.7-.98-1c-.64-.41-1.28-.82-1.28-1.72,0-.82.71-1.36,1.72-1.36.61,0,1.04.21,1.23.39.02.15.04.37.04.58,0,.37-.07.61-.45.61-.05,0-.13-.01-.13-.01l-.13-.79Z"/>
        <path class="cls-4" d="m20.15,131.84h-2.37s-.01-.06-.01-.12c0-.17.08-.32.36-.38l.44-.11v-6.07l-.64-.15c-.11-.02-.15-.05-.15-.12,0-.09.07-.22.12-.32h2.26c2.65,0,4.23.99,4.23,3.52s-1.58,3.73-4.23,3.73Zm-.03-6.6h-.42v5.96h.42c1.94,0,3.06-1.02,3.06-3.05s-1.12-2.91-3.06-2.91Z"/>
        <path class="cls-4" d="m26.43,129.32c.01,1.3.63,1.91,1.53,1.91.67,0,1.05-.26,1.31-.48.1.08.16.26.16.36,0,.26-.69.86-1.86.86-1.29,0-2.26-.74-2.26-2.56s1.1-2.76,2.3-2.76,1.79.72,1.79,1.77c0,.27-.05.64-.13.9h-2.85Zm1.84-.56c.02-.09.05-.27.05-.45,0-.58-.21-1.07-.82-1.07s-.99.49-1.06,1.52h1.83Z"/>
        <path class="cls-4" d="m34.97,131.25l.77.11s.01.04.01.08c0,.19-.14.31-.39.34l-1.39.12v-.69h-.02c-.17.22-.63.76-1.55.76-1.12,0-1.65-.66-1.65-1.9v-2.68l-.75-.12s-.01-.06-.01-.11c0-.18.14-.3.39-.33l1.43-.14v3.31c0,.96.5,1.18.97,1.18.54,0,.89-.23,1.13-.5v-3.3l-.75-.12s0-.06,0-.11c0-.18.14-.3.39-.33l1.43-.14v4.55Z"/>
        <path class="cls-4" d="m39.34,127.35h-1.44v3.07c0,.47.15.86.67.86.41,0,.75-.18.83-.25.05.08.09.24.09.35s-.37.6-1.32.6-1.33-.56-1.33-1.36v-3.25h-.79s-.01-.06-.01-.09c0-.2.13-.31.33-.36l.51-.13.24-1.42h.78v1.42h1.55l-.12.58Z"/>
        <path class="cls-4" d="m42.42,127.42c-.12-.08-.38-.21-.69-.21-.35,0-.7.15-.7.59s.49.74,1,1.03c.63.38,1.3.79,1.3,1.63s-.71,1.51-1.87,1.51c-.59,0-1.11-.18-1.33-.32-.04-.26-.07-.54-.07-.81,0-.42.12-.59.43-.59.05,0,.14.01.14.01l.22.89c.11.07.41.21.71.21.51,0,.84-.2.84-.64s-.5-.7-.98-1c-.64-.41-1.28-.82-1.28-1.72,0-.82.71-1.36,1.72-1.36.61,0,1.04.21,1.23.39.02.15.04.37.04.58,0,.37-.07.61-.45.61-.05,0-.13-.01-.13-.01l-.13-.79Z"/>
        <path class="cls-4" d="m46.58,127.28c-.7,0-1.31.5-1.31,1.88s.51,2.09,1.5,2.09c.65,0,1.03-.34,1.2-.5.09.09.17.26.17.36,0,.26-.58.87-1.73.87-1.36,0-2.25-.86-2.25-2.59s1.19-2.73,2.6-2.73c1.15,0,1.45.57,1.45.87,0,.28-.14.55-.54.63-.16-.37-.4-.87-1.09-.87Z"/>
        <path class="cls-4" d="m50.47,127.4h.02c.21-.25.71-.76,1.62-.76,1.05,0,1.65.62,1.65,1.85v2.78l.61.14c.11.02.15.05.15.14,0,.1-.08.26-.1.29h-2.38s-.01-.06-.01-.09c0-.19.13-.28.33-.35l.35-.12v-2.66c0-.89-.48-1.17-1.02-1.17-.65,0-1,.28-1.2.48v3.34l.59.14c.1.02.15.05.15.14,0,.1-.07.26-.1.29h-2.38s0-.06,0-.09c0-.19.13-.28.33-.35l.37-.12v-6.37l-.75-.1s-.01-.07-.01-.12c0-.18.14-.3.39-.33l1.44-.14v3.18Z"/>
        <path class="cls-4" d="m56.16,129.32c0,1.3.63,1.91,1.53,1.91.67,0,1.05-.26,1.31-.48.1.08.16.26.16.36,0,.26-.69.86-1.86.86-1.29,0-2.26-.74-2.26-2.56s1.1-2.76,2.3-2.76,1.79.72,1.79,1.77c0,.27-.05.64-.13.9h-2.84Zm1.84-.56c.02-.09.05-.27.05-.45,0-.58-.21-1.07-.82-1.07s-.99.49-1.06,1.52h1.83Z"/>
        <path class="cls-4" d="m64.96,131.28l.62.14c.1.02.15.05.15.14,0,.1-.08.26-.11.29h-2.38s0-.06,0-.09c0-.19.12-.28.33-.35l.35-.12v-2.66c0-.89-.5-1.17-1.02-1.17-.6,0-.99.28-1.21.46v3.36l.6.14c.11.02.15.05.15.14,0,.1-.08.26-.11.29h-2.38s-.01-.06-.01-.09c0-.19.13-.27.33-.35l.37-.12v-3.88l-.75-.12s-.01-.06-.01-.11c0-.18.14-.3.39-.33l1.43-.14-.06.74h.03c.28-.3.76-.8,1.72-.8,1.03,0,1.6.66,1.6,1.85v2.78Z"/>
        <path class="cls-4" d="m72.31,128.09v.02c1.02.17,1.69.75,1.69,1.7,0,1.18-.97,2.03-2.86,2.03h-2.67s-.01-.06-.01-.12c0-.17.08-.32.36-.38l.44-.11v-6.07l-.64-.15c-.11-.02-.15-.05-.15-.12,0-.09.07-.22.12-.32h2.47c1.87,0,2.76.66,2.76,1.83,0,1-.61,1.47-1.51,1.67Zm-1.34-2.86h-.57v2.65h.56c1.2,0,1.7-.59,1.7-1.33,0-.86-.54-1.31-1.69-1.31Zm.13,3.25h-.69v2.71h.63c1.23,0,1.77-.58,1.77-1.4,0-.78-.58-1.31-1.71-1.31Z"/>
        <path class="cls-4" d="m79.64,131.25l.77.11s.01.04.01.08c0,.19-.14.31-.39.34l-1.39.12v-.69h-.02c-.17.22-.63.76-1.55.76-1.12,0-1.65-.66-1.65-1.9v-2.68l-.75-.12s-.01-.06-.01-.11c0-.18.14-.3.39-.33l1.43-.14v3.31c0,.96.5,1.18.97,1.18.54,0,.89-.23,1.13-.5v-3.3l-.75-.12s-.01-.06-.01-.11c0-.18.14-.3.39-.33l1.43-.14v4.55Z"/>
        <path class="cls-4" d="m85.96,131.28l.62.14c.11.02.15.05.15.14,0,.1-.08.26-.1.29h-2.38s-.01-.06-.01-.09c0-.19.13-.28.33-.35l.35-.12v-2.66c0-.89-.5-1.17-1.02-1.17-.6,0-.99.28-1.21.46v3.36l.6.14c.11.02.15.05.15.14,0,.1-.08.26-.11.29h-2.38s-.01-.06-.01-.09c0-.19.13-.27.33-.35l.37-.12v-3.88l-.75-.12s0-.06,0-.11c0-.18.14-.3.39-.33l1.43-.14-.06.74h.03c.28-.3.76-.8,1.72-.8,1.03,0,1.6.66,1.6,1.85v2.78Z"/>
        <path class="cls-4" d="m91.78,131.25l.77.11s.01.04.01.08c0,.19-.14.31-.39.34l-1.39.12v-.68h-.03c-.23.33-.67.75-1.49.75-1.03,0-2-.66-2-2.49,0-1.95,1.36-2.83,2.71-2.83.3,0,.57.05.75.09v-1.84l-.75-.1s0-.07,0-.12c0-.18.14-.3.39-.33l1.43-.14v7.03Zm-1.06-3.66c-.16-.15-.44-.31-.88-.31-.85,0-1.48.61-1.48,1.99s.59,1.9,1.29,1.9c.61,0,.93-.28,1.07-.44v-3.14Z"/>
        <path class="cls-4" d="m94.27,129.32c0,1.3.63,1.91,1.53,1.91.67,0,1.05-.26,1.31-.48.1.08.16.26.16.36,0,.26-.69.86-1.86.86-1.29,0-2.26-.74-2.26-2.56s1.1-2.76,2.3-2.76,1.79.72,1.79,1.77c0,.27-.05.64-.13.9h-2.84Zm1.84-.56c.02-.09.05-.27.05-.45,0-.58-.21-1.07-.82-1.07s-.99.49-1.06,1.52h1.83Z"/>
        <path class="cls-4" d="m100.53,127.42c-.12-.08-.38-.21-.69-.21-.35,0-.7.15-.7.59s.49.74,1,1.03c.63.38,1.3.79,1.3,1.63s-.71,1.51-1.87,1.51c-.59,0-1.11-.18-1.33-.32-.04-.26-.07-.54-.07-.81,0-.42.12-.59.43-.59.05,0,.14.01.14.01l.22.89c.11.07.41.21.71.21.51,0,.84-.2.84-.64s-.5-.7-.98-1c-.64-.41-1.28-.82-1.28-1.72,0-.82.71-1.36,1.72-1.36.61,0,1.04.21,1.23.39.02.15.04.37.04.58,0,.37-.07.61-.45.61-.05,0-.13-.01-.13-.01l-.13-.79Z"/>
        <path class="cls-4" d="m105.26,127.35h-1.44v3.07c0,.47.15.86.67.86.41,0,.75-.18.83-.25.05.08.09.24.09.35s-.37.6-1.32.6-1.33-.56-1.33-1.36v-3.25h-.79s-.01-.06-.01-.09c0-.2.13-.31.33-.36l.51-.13.24-1.42h.78v1.42h1.55l-.12.58Z"/>
        <path class="cls-4" d="m109.61,130.72c0,.42.16.55.34.55.24,0,.37-.13.4-.18.05.07.13.22.13.31,0,.14-.27.55-.95.55-.48,0-.79-.21-.88-.74h-.02c-.12.2-.5.76-1.37.76-.8,0-1.37-.55-1.37-1.38,0-1.12,1.23-1.54,2.4-1.54h.27v-.47c0-.96-.25-1.33-.9-1.33-.24,0-.45.07-.54.1-.09.2-.18.57-.23.92,0,0-.16.01-.24.01-.36,0-.56-.17-.56-.49,0-.65.86-1.14,1.84-1.14,1.15,0,1.69.63,1.69,1.82v2.26Zm-1.3-1.14c-.85.04-1.33.35-1.33.9,0,.44.25.74.68.74s.76-.28.89-.45v-1.2h-.24Z"/>
        <path class="cls-4" d="m115.57,127.37h-.85c.2.26.33.58.33.96,0,1.11-.92,1.74-2.07,1.74-.18,0-.34-.02-.49-.05-.15.08-.29.23-.29.47s.17.37.52.37h1.22c.97,0,1.51.44,1.51,1.2,0,1.05-1.03,2.02-2.8,2.02-1.29,0-1.92-.45-1.92-1.22s.58-1.08.96-1.2v-.02c-.27-.15-.43-.4-.43-.74,0-.61.56-.89.76-1v-.02c-.59-.26-.97-.8-.97-1.55,0-1.1.92-1.68,2-1.68.28,0,.56.04.82.13h1.84l-.12.6Zm-3.02,4.43c-.15,0-.27-.01-.39-.02-.27.16-.45.42-.45.78,0,.55.34.89,1.1.89,1.02,0,1.65-.47,1.65-1.03,0-.43-.24-.62-.78-.62h-1.13Zm-.46-3.46c0,.83.42,1.15.95,1.15.57,0,.98-.33.98-1.15,0-.75-.41-1.12-.96-1.12s-.97.32-.97,1.12Z"/>
        <path class="cls-4" d="m117.31,129.32c.01,1.3.63,1.91,1.53,1.91.67,0,1.05-.26,1.31-.48.1.08.16.26.16.36,0,.26-.69.86-1.86.86-1.29,0-2.26-.74-2.26-2.56s1.1-2.76,2.3-2.76,1.79.72,1.79,1.77c0,.27-.05.64-.13.9h-2.85Zm1.84-.56c.02-.09.05-.27.05-.45,0-.58-.21-1.07-.82-1.07s-.99.49-1.06,1.52h1.83Z"/>
        <path class="cls-4" d="m123.57,127.42c-.12-.08-.38-.21-.69-.21-.35,0-.7.15-.7.59s.49.74,1,1.03c.63.38,1.3.79,1.3,1.63s-.71,1.51-1.87,1.51c-.59,0-1.11-.18-1.33-.32-.04-.26-.07-.54-.07-.81,0-.42.12-.59.43-.59.05,0,.14.01.14.01l.22.89c.11.07.41.21.71.21.51,0,.84-.2.84-.64s-.5-.7-.98-1c-.64-.41-1.28-.82-1.28-1.72,0-.82.71-1.36,1.72-1.36.61,0,1.04.21,1.23.39.02.15.04.37.04.58,0,.37-.07.61-.45.61-.05,0-.13-.01-.13-.01l-.13-.79Z"/>
      </g>
      <polygon class="cls-2" points="31.43 70.43 32.93 70.43 32.93 90.43 29.43 90.43 29.43 70.43 31.43 70.43"/>
      <polygon class="cls-1" points="31.43 50.33 32.93 50.33 32.93 70.43 29.43 70.43 29.43 50.33 31.43 50.33"/>
      <path class="cls-4" d="m20.32,37.42c1.02,1.62,1.83,1.59,3.04,1.59-1-.77-1.66-1.75-1.98-2.25l-1.87-2.99c-.18-.92-.66-1.79-1.38-2.43.24-.09.44-.19.56-.28-1.22,0-2.43-.62-3.1-.62-.43,0-.7.26-.7.59.03.38.42.76,1.13.76.16,0,.37-.02.6-.06.39.54.7,1.03.7,1.73,0,1.31-1.57,2.33-3.15,2.33-.09,0-.17,0-.26-.01-.14-.32-.62-.87-.62-1.49,0-1.04.68-1.89.68-2.92,0-.64-.31-1.04-.43-1.2.19-.18.41-.4.46-.55-.11.05-.25.06-.44.06-.76,0-1.38-.2-1.98-.2-.34,0-.44.11-.44.21,0,.04,0,.07.02.09-.13-.05-.25-.08-.39-.11-.18-.03-.37-.05-.57-.05-.73,0-.99.31-.99.57,0,.22.18.63.37.94.29-.14.63-.24.78-.24.39,0,.73.37.92.81-.26.03-.31.04-.58.04-.71,0-1.2-.26-1.3-.26,0,0-.03,0-.03.02,0,.1.2.36.6.51.52.19,1.31.27,1.44.29,0,.02-.13.27-.28.32-.03.01-.06.01-.09,0-.55-.11-.7-.15-1.4-.42-.02,0-.03,0-.03.03,0,.27.71.88,1.35,1.11-.53.68-1.2,1.38-1.51,2.44-.09,0-.17.01-.26.01-1.58,0-3.15-1.02-3.15-2.33,0-.7.31-1.19.7-1.73.23.04.44.06.6.06.72,0,1.1-.38,1.13-.76,0-.34-.28-.59-.7-.59-.67,0-1.88.62-3.1.62.12.09.32.19.56.28-.72.64-1.19,1.51-1.38,2.43l-1.87,2.99c-.31.5-.98,1.48-1.98,2.25,1.21,0,2.01.03,3.04-1.59l.96-1.53c.07.2.16.39.26.58l-1.91,3.05c-.32.51-.97,1.48-1.98,2.25,1.21,0,2.01.03,3.04-1.59l1.64-2.63c.12.13.25.26.39.38l-2.32,3.71c-.32.51-.97,1.48-1.98,2.25,1.21,0,2.01.03,3.04-1.59l2.26-3.62c.15.09.3.19.46.27l-2.76,4.41c-.32.51-.97,1.48-1.98,2.25,1.21,0,2.01.03,3.04-1.59l2.84-4.54c.17.06.34.13.51.18l-3.21,5.13c-.31.5-.98,1.49-1.98,2.25,1.21,0,2.01.03,3.04-1.59l3.42-5.47s.07.01.1.02c.09.3.16.57.16.85,0,1.72-1.13,3.24-2.48,4.41.09.04.24.05.38.05.28,0,.46-.01.59-.04-.31.71-.99,1.63-1.33,2.11-.44-.08-1.09-.14-1.51-.14s-.49.26-.49.49c0,.4.19.72.41.9.08-.21.25-.48,1.06-.48.02,0,.04,0,.08,0-.24.27-.99.87-.99,1.36,0,.32.35.8.82.8-.03-.1-.02-.2-.02-.27,0-.39.35-.86.64-1.18,0,.1,0,.09,0,.2,0,.93.08,1.36.68,1.36.29,0,.49-.16.56-.21-.38-.35-.4-.63-.4-1.15,0-.14,0-.27,0-.45,0-.12,0-.28-.02-.39.21-.03.3-.03.46-.03,0,0,.84-.07,1.04.37.23-.21.56-.5.56-.83,0-.21-.1-.46-.53-.46-.16,0-.68.1-1.11.1.12-.26.63-1.01,1.08-1.56.07.21.17.44.41.63.03-.35.24-1.46.79-2.12.06.44.15.89.15,1.84,0,2.31-.56,4.02-1.74,4.35.15.27.48.51.82.51.43,0,.67-.49.91-.95.12.34.47,1.17.82,1.17s.69-.83.82-1.17c.24.46.48.95.91.95.34,0,.66-.24.82-.51-1.18-.33-1.74-2.04-1.74-4.35,0-.95.09-1.4.15-1.84.55.65.76,1.76.79,2.12.23-.19.34-.42.41-.63.45.55.96,1.3,1.08,1.56-.43,0-.95-.1-1.11-.1-.43,0-.53.24-.53.46,0,.33.33.62.56.83.2-.44,1.04-.37,1.04-.37.16,0,.25,0,.46.03-.02.11-.02.27-.02.39,0,.18,0,.32,0,.45,0,.52-.02.8-.4,1.15.07.05.27.21.56.21.59,0,.68-.43.68-1.36,0-.11,0-.1,0-.2.29.32.64.78.64,1.18,0,.07,0,.17-.02.27.47,0,.82-.48.82-.8,0-.49-.75-1.09-.99-1.36.04,0,.07,0,.08,0,.82,0,.98.27,1.06.48.22-.18.41-.5.41-.9,0-.23-.05-.49-.49-.49s-1.07.06-1.51.14c-.34-.48-1.01-1.4-1.33-2.11.13.02.31.04.59.04.14,0,.29-.01.38-.05-1.35-1.17-2.48-2.69-2.48-4.41,0-.28.07-.55.16-.85.03,0,.07-.01.1-.02l3.42,5.47c1.02,1.62,1.83,1.59,3.04,1.59-1-.76-1.67-1.75-1.98-2.25l-3.21-5.13c.17-.06.34-.12.51-.18l2.84,4.54c1.02,1.62,1.83,1.59,3.04,1.59-1.01-.77-1.66-1.74-1.98-2.25l-2.76-4.41c.16-.09.31-.18.46-.27l2.26,3.62c1.02,1.62,1.83,1.59,3.03,1.59-1.01-.77-1.66-1.74-1.98-2.25l-2.32-3.71c.14-.12.27-.25.39-.38l1.64,2.63c1.02,1.62,1.83,1.59,3.04,1.59-1.01-.77-1.66-1.75-1.98-2.25l-1.91-3.05c.1-.19.19-.38.26-.58l.96,1.53Zm-15.31-3.51c0-1.14.83-2.04,1.12-2.3.07.02.14.03.21.05-.31.38-.86,1.01-.86,1.85,0,1.67,1.78,3.12,3.8,3.12-.01.14-.02.29-.02.45,0,.25.01.48.04.69-2.28-.01-4.29-1.87-4.29-3.86Zm3.09,13.67v.04s.03,0,.03,0c.64,0,.95-.05,1.16-.08.11-.01.19-.03.27-.03.17,0,.29.02.29.22,0,.14-.16.35-.32.48-.24-.22-.56-.27-1.04-.27-.22,0-.52.04-.68.06h-.02s-.03,0-.03,0v.08c.03.13.05.3.05.52v.2s0,.25,0,.25c0,.54.07.85.27,1.09-.05.02-.13.03-.18.03-.34,0-.44-.15-.44-1.12,0-.2-.01-.38-.02-.5v-.18s-.05.03-.05.03c-.5.38-1.02,1.07-1.05,1.58-.15-.1-.31-.32-.31-.48,0-.28.42-.7.91-1.18l.28-.28.04-.04-.09-.02c-.1-.03-.3-.08-.46-.08-.55,0-.89.1-1.1.33-.08-.11-.14-.36-.14-.51,0-.1.02-.16.06-.2.05-.05.12-.05.19-.05h.01c.6,0,1.32.11,1.6.15h.02s.01,0,.01,0c.05-.07,1.19-1.59,1.49-2.4.07-.03.13-.04.25-.04.23,0,.29.15.35.38-.72.87-1.16,1.54-1.32,2.01Zm6.17-2.39c.12,0,.18.02.25.04.3.81,1.44,2.33,1.49,2.4h.01s.02,0,.02,0c.28-.05,1-.15,1.6-.15h.01c.07,0,.14,0,.19.05.04.04.06.11.06.2,0,.15-.06.4-.14.51-.21-.23-.55-.33-1.1-.33-.16,0-.36.05-.46.08h-.04s-.05.02-.05.02l.32.32c.49.49.91.9.91,1.18,0,.17-.16.39-.31.48-.03-.51-.55-1.2-1.05-1.58l-.04-.03v.18c-.02.12-.03.31-.03.5,0,.97-.1,1.12-.44,1.12-.05,0-.13-.01-.18-.03.19-.23.27-.54.27-1.09v-.25s0-.2,0-.2c0-.22.02-.39.04-.52v-.08s-.04,0-.04,0c-.16-.02-.45-.06-.68-.06-.48,0-.81.04-1.04.27-.16-.13-.32-.34-.32-.48,0-.2.13-.22.29-.22.08,0,.16.01.27.03.21.03.52.08,1.16.08h.04v-.04c-.17-.46-.62-1.14-1.34-2.01.06-.23.13-.38.35-.38Zm-2.65-13.3c-.07-.3-.22-.6-.42-.83-.18-.21-.47-.45-.86-.45-.18,0-.48.08-.67.16-.07-.13-.21-.44-.21-.58s.25-.29.71-.29c1.03,0,1.65.47,1.65,1.25,0,.27-.11.52-.21.75Zm.46-1.02c-.04-.22-.12-.42-.25-.59,0-.2.09-.4.41-.24-.18.18-.04.5-.04.5,0,0,.36-.17.29-.4.53.13.15.84-.41.73Zm2.01,6.9c.03-.22.04-.46.04-.69,0-.13,0-.28-.01-.45,1.99-.03,3.74-1.46,3.74-3.12,0-.84-.55-1.47-.86-1.85.07-.01.14-.03.21-.05.29.25,1.12,1.16,1.12,2.3,0,1.98-1.98,3.82-4.24,3.86Z"/>
      <polygon class="cls-4" points="32.93 30.43 32.93 50.43 31.43 50.43 29.43 50.43 29.43 30.43 32.93 30.43"/>
      <path class="cls-4" d="m44.68,32.3c0,.29-.04.54-.11.75s-.17.4-.29.55c-.12.15-.27.28-.43.37-.16.1-.33.17-.51.21v.02c.21.04.41.11.6.23.19.11.35.25.49.42.14.17.25.36.33.59.08.23.12.47.12.74,0,.33-.06.62-.17.89s-.28.5-.52.7c-.23.2-.53.35-.89.46s-.78.17-1.27.17h-1.68v-8.21h1.58c.48,0,.9.05,1.24.15.35.1.63.24.85.42s.38.4.48.66c.1.26.15.55.15.86Zm-1.05.04c0-.38-.13-.69-.4-.94s-.69-.37-1.27-.37h-.55v2.83h.54c.56,0,.98-.13,1.26-.4s.43-.64.43-1.12Zm.15,3.78c0-.44-.14-.8-.43-1.05-.29-.26-.7-.39-1.24-.39h-.7v2.88h.64c.61,0,1.05-.12,1.33-.36.27-.24.41-.6.41-1.08Zm6.38,2.3h-.88v-.64h-.02s-.08.12-.15.21c-.08.09-.18.18-.3.26-.12.08-.27.16-.45.22s-.37.1-.58.1c-.25,0-.48-.04-.68-.11-.2-.08-.37-.2-.52-.36s-.25-.38-.33-.65c-.08-.27-.11-.59-.11-.98v-3.75h.96v3.68c0,.48.08.82.23,1.02.15.2.39.3.72.3.28,0,.51-.07.7-.21.19-.14.34-.28.45-.41v-4.38h.96v5.71Zm4.59,0v-3.68c0-.48-.08-.83-.24-1.04-.16-.21-.41-.32-.74-.32-.29,0-.52.07-.71.21s-.34.28-.45.42v4.4h-.96v-5.71h.88v.64h.02s.08-.12.15-.21c.08-.09.18-.18.31-.26s.28-.16.45-.22.37-.1.6-.1c.25,0,.48.04.69.11.21.08.38.2.52.36s.25.38.33.65c.08.27.12.59.12.98v3.75h-.96Zm2.14-2.77c0-.58.08-1.06.23-1.45s.35-.7.58-.94.51-.41.81-.51c.3-.1.6-.15.9-.15.18,0,.34.01.48.04.13.03.25.06.33.1v-2.74l.96-.11v8.52h-.88v-.61h-.02s-.07.11-.13.2-.15.17-.26.25-.25.15-.42.21c-.17.06-.36.09-.58.09-.27,0-.53-.05-.77-.16-.24-.11-.45-.28-.64-.51-.18-.23-.33-.54-.43-.9s-.16-.82-.16-1.34Zm2.26,2.06c.15,0,.29-.02.4-.06s.22-.09.31-.15.16-.12.22-.18.11-.12.14-.17v-3.52c-.09-.06-.19-.1-.3-.14-.12-.04-.26-.06-.43-.06-.22,0-.43.04-.62.11-.19.08-.36.2-.51.37s-.26.4-.34.68-.12.62-.12,1.02.03.73.1.99c.07.27.16.48.28.64.12.16.25.28.4.35s.31.11.48.11Zm7.18-3.07c0,.25,0,.46-.02.64s-.03.34-.05.47h-2.92c.03.67.18,1.17.43,1.49.26.32.63.48,1.11.48.17,0,.32-.02.45-.06s.25-.09.35-.14c.1-.06.18-.11.25-.17.07-.06.12-.1.15-.13l.36.68s-.1.1-.18.17c-.08.08-.19.15-.32.23-.13.08-.3.14-.5.2s-.43.08-.7.08c-.36,0-.68-.06-.97-.18-.29-.12-.54-.3-.74-.55s-.36-.57-.47-.95c-.11-.38-.17-.85-.17-1.39,0-.51.06-.95.17-1.32.11-.37.27-.67.47-.91s.43-.41.69-.53c.26-.12.54-.17.84-.17.55,0,.98.17,1.29.52s.46.86.46,1.55Zm-1.81-1.29c-.34,0-.61.14-.82.43s-.33.7-.36,1.24h2.08s.01-.1.02-.17c0-.08,0-.16,0-.24,0-.4-.08-.7-.24-.92-.16-.22-.39-.33-.69-.33Zm5.56.51c-.06-.07-.18-.17-.35-.29-.17-.12-.38-.18-.65-.18-.25,0-.45.06-.58.18s-.2.26-.2.43c0,.21.06.39.18.53.12.14.31.29.57.45l.36.21c.39.23.69.48.92.74.22.27.33.61.33,1.03,0,.45-.16.83-.47,1.14-.31.31-.76.46-1.35.46-.23,0-.43-.02-.61-.07s-.33-.1-.46-.17c-.13-.06-.24-.13-.33-.21-.09-.08-.16-.14-.21-.21l.46-.76s.11.1.17.17c.07.06.15.12.24.18s.2.11.32.15.26.06.42.06c.29,0,.5-.06.65-.19s.23-.28.23-.46c0-.13-.02-.25-.05-.35-.04-.1-.09-.19-.16-.27s-.16-.15-.26-.23-.22-.15-.36-.24l-.36-.23c-.36-.23-.64-.47-.84-.73-.2-.25-.3-.58-.3-.98,0-.21.04-.41.12-.59.08-.18.2-.33.35-.46.15-.13.33-.23.53-.31.2-.08.42-.11.65-.11s.41.02.57.07c.16.04.3.1.41.17.12.07.21.13.29.2.08.07.14.12.18.17l-.42.69Zm4.7,4.56v-3.68c0-.47-.07-.81-.2-1.01s-.35-.31-.65-.31c-.16,0-.3.02-.42.06-.12.04-.23.09-.33.15s-.18.12-.25.2-.13.13-.18.19v4.4h-.96v-5.71h.88v.64h.02c.04-.06.1-.14.18-.23.08-.09.18-.18.3-.26s.26-.15.42-.21.34-.08.54-.08c.65,0,1.11.25,1.38.76.06-.08.13-.16.23-.26.1-.09.21-.17.33-.25.13-.08.27-.14.43-.18s.33-.07.52-.07c1.16,0,1.74.67,1.74,2.02v3.83h-.96v-3.68c0-.47-.08-.81-.25-1.01s-.41-.31-.74-.31c-.27,0-.49.07-.67.2-.18.13-.32.26-.42.37.02.09.03.18.04.28,0,.1.01.2.01.32v3.83h-.96Zm6.37,0h-.96v-5.71h.96v5.71Zm-.48-7.09c-.2,0-.36-.06-.48-.19s-.18-.29-.18-.5.06-.36.18-.49.28-.19.48-.19.35.06.46.19.18.29.18.49-.06.37-.18.5-.27.19-.46.19Zm5.07,7.09v-3.68c0-.48-.08-.83-.24-1.04-.16-.21-.41-.32-.74-.32-.29,0-.52.07-.71.21s-.34.28-.45.42v4.4h-.96v-5.71h.88v.64h.02s.08-.12.15-.21c.08-.09.18-.18.31-.26s.28-.16.45-.22.37-.1.59-.1c.25,0,.48.04.69.11.21.08.38.2.52.36s.25.38.33.65c.08.27.12.59.12.98v3.75h-.96Zm3.37,0h-.96v-5.71h.96v5.71Zm-.48-7.09c-.2,0-.36-.06-.48-.19s-.18-.29-.18-.5.06-.36.18-.49.28-.19.48-.19.35.06.46.19.18.29.18.49-.06.37-.18.5-.27.19-.46.19Zm4.41,2.53c-.06-.07-.18-.17-.35-.29-.17-.12-.38-.18-.65-.18-.25,0-.45.06-.58.18s-.2.26-.2.43c0,.21.06.39.18.53.12.14.31.29.57.45l.36.21c.39.23.69.48.92.74.22.27.33.61.33,1.03,0,.45-.16.83-.47,1.14-.31.31-.76.46-1.35.46-.23,0-.43-.02-.61-.07-.17-.05-.33-.1-.46-.17-.13-.06-.24-.13-.33-.21-.09-.08-.16-.14-.21-.21l.46-.76s.11.1.17.17c.07.06.15.12.24.18.1.06.2.11.32.15s.26.06.42.06c.29,0,.5-.06.65-.19.15-.13.23-.28.23-.46,0-.13-.02-.25-.05-.35-.04-.1-.09-.19-.16-.27s-.16-.15-.26-.23-.22-.15-.36-.24l-.36-.23c-.36-.23-.64-.47-.84-.73-.2-.25-.3-.58-.3-.98,0-.21.04-.41.12-.59.08-.18.2-.33.35-.46.15-.13.33-.23.53-.31.2-.08.42-.11.65-.11s.41.02.57.07c.16.04.3.1.41.17.11.07.21.13.29.2.08.07.14.12.18.17l-.42.69Zm4.14-.37h-1.25v3.17c0,.4.05.68.15.83.1.15.28.22.52.22.14,0,.27-.02.37-.06s.18-.08.23-.11l.13.77s-.13.08-.29.15c-.15.07-.35.1-.61.1-.49,0-.86-.14-1.11-.41-.25-.27-.37-.73-.37-1.36v-3.3h-.69v-.64l.69-.14.11-1.59h.86v1.59h1.37l-.12.79Zm4.68,1.14c0,.25,0,.46-.02.64s-.03.34-.05.47h-2.92c.03.67.18,1.17.43,1.49.26.32.63.48,1.11.48.17,0,.32-.02.45-.06s.25-.09.35-.14c.1-.06.18-.11.25-.17.07-.06.12-.1.15-.13l.36.68s-.1.1-.18.17c-.08.08-.19.15-.32.23-.13.08-.3.14-.5.2-.2.06-.43.08-.7.08-.36,0-.68-.06-.97-.18-.29-.12-.54-.3-.74-.55-.2-.25-.36-.57-.47-.95-.11-.38-.17-.85-.17-1.39,0-.51.06-.95.17-1.32.11-.37.27-.67.47-.91s.43-.41.69-.53c.26-.12.54-.17.84-.17.55,0,.98.17,1.29.52s.46.86.46,1.55Zm-1.81-1.29c-.34,0-.61.14-.82.43s-.33.7-.36,1.24h2.08s.01-.1.02-.17c0-.08,0-.16,0-.24,0-.4-.08-.7-.24-.92-.16-.22-.39-.33-.69-.33Zm5.6.2s-.08-.04-.15-.06c-.08-.02-.19-.04-.32-.04-.3,0-.54.08-.71.24-.17.16-.29.34-.36.53v4.19h-.96v-5.71h.88v.77h.02c.04-.11.09-.22.15-.33s.14-.2.24-.29.21-.15.34-.2c.13-.05.29-.07.47-.07.13,0,.24.01.33.04s.15.04.2.06l-.12.86Zm1.92,4.87h-.96v-5.71h.96v5.71Zm-.48-7.09c-.2,0-.36-.06-.48-.19s-.18-.29-.18-.5.06-.36.18-.49.28-.19.48-.19.35.06.46.19.18.29.18.49-.06.37-.18.5-.27.19-.46.19Zm5.95,7.09h-.88v-.64h-.02s-.08.12-.15.21c-.08.09-.18.18-.3.26-.12.08-.27.16-.45.22-.17.06-.37.1-.58.1-.25,0-.48-.04-.68-.11-.2-.08-.37-.2-.52-.36s-.25-.38-.33-.65c-.08-.27-.11-.59-.11-.98v-3.75h.96v3.68c0,.48.08.82.23,1.02.15.2.39.3.72.3.28,0,.51-.07.7-.21.19-.14.34-.28.45-.41v-4.38h.96v5.71Zm4.47,0v-3.68c0-.47-.07-.81-.2-1.01s-.35-.31-.65-.31c-.16,0-.3.02-.42.06-.12.04-.23.09-.33.15-.1.06-.18.12-.25.2s-.13.13-.18.19v4.4h-.96v-5.71h.88v.64h.02c.04-.06.1-.14.18-.23.08-.09.18-.18.3-.26s.26-.15.42-.21.34-.08.54-.08c.65,0,1.11.25,1.38.76.06-.08.13-.16.23-.26.1-.09.21-.17.33-.25.13-.08.27-.14.43-.18s.33-.07.52-.07c1.16,0,1.74.67,1.74,2.02v3.83h-.96v-3.68c0-.47-.08-.81-.25-1.01-.17-.21-.41-.31-.74-.31-.27,0-.49.07-.67.2-.18.13-.32.26-.42.37.02.09.03.18.04.28,0,.1.01.2.01.32v3.83h-.96Zm-74.96,7.07h-1.17v4.93h-.96v-4.93h-.69v-.64l.69-.13v-1.14c0-.31.04-.58.13-.8s.2-.4.35-.55.31-.25.5-.31.39-.1.61-.1.38.03.52.08.24.1.29.13l-.2.8s-.11-.07-.2-.1-.19-.05-.32-.05c-.23,0-.4.07-.52.21s-.18.4-.18.79v1.02h1.29l-.12.79Zm4.95,4.93h-.88v-.64h-.02s-.08.12-.15.21c-.08.09-.18.18-.3.26-.12.08-.27.16-.45.22s-.37.1-.58.1c-.25,0-.48-.04-.68-.11-.2-.08-.37-.2-.52-.36s-.25-.38-.33-.65c-.08-.27-.11-.59-.11-.98v-3.75h.96v3.68c0,.48.08.82.23,1.02.15.2.39.3.72.3.28,0,.51-.07.7-.21.19-.14.34-.28.45-.41v-4.38h.96v5.71Zm-2.37-7.35c0,.18-.06.33-.17.44s-.25.17-.4.17-.29-.06-.4-.17-.17-.26-.17-.44.06-.33.17-.44.25-.17.4-.17.29.06.4.17.17.26.17.44Zm1.83,0c0,.18-.06.33-.17.44s-.25.17-.4.17-.29-.06-.4-.17-.17-.26-.17-.44.06-.33.17-.44.25-.17.4-.17.29.06.4.17.17.26.17.44Zm4.52,2.49s-.08-.04-.15-.06-.19-.04-.32-.04c-.3,0-.54.08-.71.24-.17.16-.29.34-.36.53v4.19h-.96v-5.71h.88v.77h.02c.04-.11.09-.22.15-.33s.14-.2.24-.29.21-.15.34-.2c.13-.05.29-.07.47-.07.13,0,.24.01.33.04s.15.04.2.06l-.12.86Zm7.71-1.25c0,.29-.04.54-.11.75s-.17.4-.29.55c-.12.15-.27.28-.43.37-.16.1-.33.17-.51.21v.02c.21.04.41.11.6.23.19.11.35.25.49.42.14.17.25.36.33.59.08.23.12.47.12.74,0,.33-.06.62-.17.89s-.28.5-.52.7c-.23.2-.53.35-.89.46s-.78.17-1.27.17h-1.68v-8.21h1.58c.48,0,.9.05,1.24.15.35.1.63.24.85.42s.38.4.48.66c.1.26.15.55.15.86Zm-1.05.04c0-.38-.13-.69-.4-.94s-.69-.37-1.27-.37h-.55v2.83h.54c.56,0,.98-.13,1.26-.4s.43-.64.43-1.12Zm.15,3.78c0-.44-.14-.8-.43-1.05-.29-.26-.7-.39-1.24-.39h-.7v2.88h.64c.61,0,1.05-.12,1.33-.36.27-.24.41-.6.41-1.08Zm3.34,2.3h-.96v-5.71h.96v5.71Zm-.48-7.09c-.2,0-.36-.06-.48-.19s-.18-.29-.18-.5.06-.36.18-.49.28-.19.48-.19.35.06.46.19.18.29.18.49-.06.37-.18.5-.27.19-.46.19Zm2.9,5.76c0,.24.03.4.1.5.07.1.18.14.35.14.09,0,.16,0,.22-.02s.11-.03.14-.05l.08.71s-.13.06-.26.1-.3.06-.51.06c-.33,0-.59-.1-.79-.3s-.3-.55-.3-1.06v-7.16l.96-.11v7.19Zm1.5-1.44c0-.58.08-1.06.23-1.45s.35-.7.58-.94.51-.41.81-.51c.3-.1.6-.15.9-.15.18,0,.34.01.48.04.13.03.25.06.33.1v-2.74l.96-.11v8.52h-.88v-.61h-.02s-.07.11-.13.2-.15.17-.26.25-.25.15-.42.21c-.17.06-.36.09-.58.09-.27,0-.53-.05-.77-.16-.24-.11-.45-.28-.64-.51-.18-.23-.33-.54-.43-.9s-.16-.82-.16-1.34Zm2.26,2.06c.15,0,.29-.02.4-.06s.22-.09.31-.15.16-.12.22-.18.11-.12.14-.17v-3.52c-.09-.06-.19-.1-.3-.14-.12-.04-.26-.06-.43-.06-.22,0-.43.04-.62.11-.19.08-.36.2-.51.37s-.26.4-.34.68-.12.62-.12,1.02.03.73.1.99c.07.27.16.48.28.64.12.16.25.28.4.35s.31.11.48.11Zm7.51.71h-.88v-.64h-.02s-.08.12-.15.21c-.08.09-.18.18-.3.26-.12.08-.27.16-.45.22s-.37.1-.58.1c-.25,0-.48-.04-.68-.11-.2-.08-.37-.2-.52-.36s-.25-.38-.33-.65c-.08-.27-.11-.59-.11-.98v-3.75h.96v3.68c0,.48.08.82.23,1.02.15.2.39.3.72.3.28,0,.51-.07.7-.21.19-.14.34-.28.45-.41v-4.38h.96v5.71Zm4.59,0v-3.68c0-.48-.08-.83-.24-1.04-.16-.21-.41-.32-.74-.32-.29,0-.52.07-.71.21s-.34.28-.45.42v4.4h-.96v-5.71h.88v.64h.02s.08-.12.15-.21c.08-.09.18-.18.31-.26.13-.08.28-.16.45-.22s.37-.1.59-.1c.25,0,.48.04.69.11.21.08.38.2.52.36s.25.38.33.65c.08.27.12.59.12.98v3.75h-.96Zm6.5-4.96h-.71c.18.3.27.64.27,1.02,0,.3-.05.57-.15.82-.1.24-.24.45-.42.61s-.39.29-.63.38c-.24.09-.5.13-.78.13h-.15s-.1,0-.15-.01c-.1.04-.19.1-.3.19s-.15.2-.15.35c0,.12.05.22.14.29.09.08.24.11.45.11h.73c.27,0,.52.03.75.08s.43.14.6.27c.17.12.3.28.4.47.1.19.14.42.14.69,0,.31-.07.59-.2.84s-.32.47-.55.65-.53.33-.87.43-.72.15-1.14.15c-.61,0-1.07-.13-1.39-.4-.32-.27-.48-.65-.48-1.15,0-.21.04-.4.11-.55.08-.15.16-.29.27-.4.1-.12.21-.21.32-.27.11-.07.19-.12.26-.16v-.02c-.25-.18-.37-.45-.37-.8,0-.15.03-.28.09-.39s.13-.2.2-.27c.08-.07.15-.13.23-.17.08-.04.13-.07.17-.09v-.02c-.29-.13-.53-.35-.71-.64-.18-.29-.27-.66-.27-1.11,0-.32.05-.6.15-.84.1-.24.24-.44.42-.6s.38-.28.61-.36c.23-.08.49-.12.76-.12s.52.05.76.14h1.74l-.13.75Zm-2.65,4.78c-.17,0-.31-.01-.44-.04-.07.04-.14.09-.21.14-.07.06-.13.12-.18.2s-.1.17-.14.28c-.04.11-.05.23-.05.37,0,.61.34.92,1.01.92.58,0,1.01-.11,1.29-.34s.42-.49.42-.78c0-.28-.09-.47-.26-.59-.17-.12-.41-.17-.7-.17h-.73Zm1.27-3.76c0-.41-.1-.71-.29-.88-.19-.17-.42-.26-.68-.26-.28,0-.52.09-.71.26s-.3.47-.3.88.1.71.3.88.43.26.69.26c.28,0,.51-.09.71-.26.19-.17.29-.47.29-.88Zm-40.91,15.94h-.88v-.64h-.02s-.08.12-.15.21c-.08.09-.18.18-.3.26-.12.08-.27.16-.45.22s-.37.1-.58.1c-.25,0-.48-.04-.68-.11-.2-.08-.37-.2-.52-.36s-.25-.38-.33-.65c-.08-.27-.11-.59-.11-.98v-3.75h.96v3.68c0,.48.08.82.23,1.02.15.2.39.3.72.3.28,0,.51-.07.7-.21.19-.14.34-.28.45-.41v-4.38h.96v5.71Zm4.59,0v-3.68c0-.48-.08-.83-.24-1.04-.16-.21-.41-.32-.74-.32-.29,0-.52.07-.71.21s-.34.28-.45.42v4.4h-.96v-5.71h.88v.64h.02s.08-.12.15-.21c.08-.09.18-.18.31-.26s.28-.16.45-.22.37-.1.59-.1c.25,0,.48.04.69.11.21.08.38.2.52.36s.25.38.33.65c.08.27.12.59.12.98v3.75h-.96Zm2.14-2.77c0-.58.08-1.06.23-1.45s.35-.7.58-.94.51-.41.81-.51c.3-.1.6-.15.9-.15.18,0,.34.01.48.04.13.03.25.06.33.1v-2.74l.96-.11v8.52h-.88v-.61h-.02s-.07.11-.13.2-.15.17-.26.25-.25.15-.42.21c-.17.06-.36.09-.58.09-.27,0-.53-.05-.77-.16-.24-.11-.45-.28-.64-.51-.18-.23-.33-.54-.43-.9s-.16-.82-.16-1.34Zm2.26,2.06c.15,0,.29-.02.4-.06s.22-.09.31-.15.16-.12.22-.18.11-.12.14-.17v-3.52c-.09-.06-.19-.1-.3-.14-.12-.04-.26-.06-.43-.06-.22,0-.43.04-.62.11-.19.08-.36.2-.51.37s-.26.4-.34.68-.12.62-.12,1.02.03.73.1.99c.07.27.16.48.28.64.12.16.25.28.4.35s.31.11.48.11Zm6.24.71v-8.21h4.03l-.07.82h-2.93v3.03h2.7v.82h-2.7v3.53h-1.04Zm4.76-2.86c0-.52.06-.98.18-1.36.12-.38.29-.69.5-.93.21-.24.45-.42.73-.54.27-.12.57-.17.87-.17s.61.06.88.17c.27.12.5.29.7.54.2.24.35.55.47.93.11.38.17.83.17,1.36s-.06.99-.18,1.37-.28.69-.49.93c-.21.24-.45.42-.73.53s-.57.17-.88.17-.61-.06-.88-.17-.5-.29-.7-.53c-.2-.24-.36-.55-.47-.93-.12-.38-.17-.83-.17-1.37Zm3.51,0c0-.76-.11-1.31-.33-1.66-.22-.35-.53-.52-.93-.52s-.7.17-.92.52c-.22.35-.33.9-.33,1.66s.11,1.31.33,1.64.53.5.93.5.7-.17.92-.5c.22-.33.33-.88.33-1.64Zm4.72-2.01s-.08-.04-.15-.06-.19-.04-.32-.04c-.3,0-.54.08-.71.24-.17.16-.29.34-.36.53v4.19h-.96v-5.71h.88v.77h.02c.04-.11.09-.22.15-.33s.14-.2.24-.29.21-.15.34-.2c.13-.05.29-.07.47-.07.13,0,.24.01.33.04s.15.04.2.06l-.12.86Zm3.37.31c-.06-.07-.18-.17-.35-.29-.17-.12-.38-.18-.65-.18-.25,0-.45.06-.58.18s-.2.26-.2.43c0,.21.06.39.18.53.12.14.31.29.57.45l.36.21c.39.23.69.48.92.74.22.27.33.61.33,1.03,0,.45-.16.83-.47,1.14-.31.31-.76.46-1.35.46-.23,0-.43-.02-.61-.07s-.33-.1-.46-.17c-.13-.06-.24-.13-.33-.21-.09-.08-.16-.14-.21-.21l.46-.76s.11.1.17.17c.07.06.15.12.24.18s.2.11.32.15.26.06.42.06c.29,0,.5-.06.65-.19s.23-.28.23-.46c0-.13-.02-.25-.05-.35-.04-.1-.09-.19-.16-.27s-.16-.15-.26-.23-.22-.15-.36-.24l-.36-.23c-.36-.23-.64-.47-.84-.73-.2-.25-.3-.58-.3-.98,0-.21.04-.41.12-.59.08-.18.2-.33.35-.46.15-.13.33-.23.53-.31.2-.08.42-.11.65-.11s.41.02.57.07c.16.04.3.1.41.17.11.07.21.13.29.2.08.07.14.12.18.17l-.42.69Zm4.88-.05s-.06-.06-.11-.11c-.05-.05-.12-.1-.2-.14-.08-.05-.17-.09-.29-.12s-.24-.05-.38-.05c-.21,0-.4.04-.58.11-.18.08-.33.2-.46.36s-.23.38-.31.65c-.08.27-.11.59-.11.97,0,.42.03.77.1,1.06.07.29.16.51.28.68.12.17.26.29.43.37.17.08.36.11.57.11.29,0,.52-.05.67-.15.15-.1.26-.19.33-.25l.39.67s-.1.11-.17.17c-.08.07-.17.13-.29.2s-.26.12-.43.16c-.17.04-.37.07-.59.07-.32,0-.61-.05-.89-.15s-.52-.27-.73-.51c-.21-.24-.37-.55-.49-.93s-.18-.85-.18-1.42.07-1.01.21-1.39c.14-.38.33-.69.56-.92.23-.23.49-.4.77-.51.28-.11.57-.16.85-.16.21,0,.4.02.57.06.16.04.3.09.42.15.11.06.21.12.29.19.08.07.14.12.18.17l-.4.68Zm4.53,4.61v-3.68c0-.48-.08-.83-.24-1.04-.16-.21-.41-.32-.74-.32-.29,0-.52.07-.71.21s-.34.28-.45.42v4.4h-.96v-8.41l.96-.11v3.39h.02s.08-.11.15-.19c.07-.08.16-.16.28-.24s.26-.15.43-.21c.17-.06.37-.09.6-.09.5,0,.9.16,1.19.49s.44.86.44,1.62v3.75h-.96Zm6.4,0h-.88v-.64h-.02s-.08.12-.15.21c-.08.09-.18.18-.3.26-.12.08-.27.16-.45.22-.17.06-.37.1-.58.1-.25,0-.48-.04-.68-.11-.2-.08-.37-.2-.52-.36-.14-.17-.25-.38-.33-.65-.08-.27-.11-.59-.11-.98v-3.75h.96v3.68c0,.48.08.82.23,1.02.15.2.39.3.72.3.28,0,.51-.07.7-.21.19-.14.34-.28.45-.41v-4.38h.96v5.71Zm4.59,0v-3.68c0-.48-.08-.83-.24-1.04-.16-.21-.41-.32-.74-.32-.29,0-.52.07-.71.21s-.34.28-.45.42v4.4h-.96v-5.71h.88v.64h.02s.08-.12.15-.21c.08-.09.18-.18.31-.26.13-.08.28-.16.45-.22s.37-.1.59-.1c.25,0,.48.04.69.11.21.08.38.2.52.36s.25.38.33.65c.08.27.12.59.12.98v3.75h-.96Zm6.5-4.96h-.71c.18.3.27.64.27,1.02,0,.3-.05.57-.15.82-.1.24-.24.45-.42.61s-.39.29-.63.38c-.24.09-.5.13-.78.13h-.15s-.1,0-.15-.01c-.1.04-.19.1-.3.19-.1.09-.15.2-.15.35,0,.12.05.22.14.29.09.08.24.11.45.11h.73c.27,0,.52.03.75.08.23.06.43.14.6.27.17.12.3.28.4.47s.14.42.14.69c0,.31-.07.59-.2.84-.13.25-.32.47-.55.65s-.53.33-.87.43c-.34.1-.72.15-1.14.15-.61,0-1.07-.13-1.39-.4-.32-.27-.48-.65-.48-1.15,0-.21.04-.4.11-.55.08-.15.16-.29.27-.4.1-.12.21-.21.32-.27.11-.07.19-.12.26-.16v-.02c-.25-.18-.37-.45-.37-.8,0-.15.03-.28.09-.39s.13-.2.2-.27c.08-.07.15-.13.23-.17.08-.04.13-.07.17-.09v-.02c-.29-.13-.53-.35-.71-.64-.18-.29-.27-.66-.27-1.11,0-.32.05-.6.15-.84.1-.24.24-.44.42-.6.17-.16.38-.28.61-.36.23-.08.49-.12.76-.12s.52.05.76.14h1.74l-.13.75Zm-2.65,4.78c-.17,0-.31-.01-.44-.04-.07.04-.14.09-.21.14-.07.06-.13.12-.18.2s-.1.17-.14.28c-.04.11-.05.23-.05.37,0,.61.34.92,1.01.92.58,0,1.01-.11,1.29-.34s.42-.49.42-.78c0-.28-.09-.47-.26-.59-.17-.12-.41-.17-.7-.17h-.73Zm1.27-3.76c0-.41-.1-.71-.29-.88-.19-.17-.42-.26-.68-.26-.28,0-.52.09-.71.26s-.3.47-.3.88.1.71.3.88.43.26.69.26c.28,0,.51-.09.71-.26.19-.17.29-.47.29-.88Z"/>
    </g>
    <g>
      <g>
        <path id="path4524" class="cls-3" d="m152.21,19.15c0,6.31-3.63,9.46-10.9,9.46h-6.26c-.02-.14-.03-.26-.03-.35,0-.5.3-.83.91-.99l1.07-.27v-15.24l-1.57-.37c-.25-.05-.37-.15-.37-.29,0-.05.1-.35.29-.88h5.97c7.26,0,10.9,2.97,10.9,8.93h0Zm-3.73.08c0-4.8-2.42-7.19-7.25-7.19h-.67v14.76h.67c4.83,0,7.25-2.52,7.25-7.57h0Z"/>
        <path id="path4526" class="cls-3" d="m159.18,27.12l1.49.35c.25.05.37.17.37.35,0,.36-.09.62-.27.8h-6.61c-.02-.14-.03-.24-.03-.29,0-.39.28-.68.83-.88l.85-.32v-9.78l-1.81-.32c-.02-.14-.03-.25-.03-.32,0-.5.33-.77.99-.83l4.21-.4v11.64Zm.29-15.83c0,.57-.2,1.03-.59,1.39-.39.34-.87.51-1.44.51s-1.04-.17-1.41-.51c-.37-.36-.56-.82-.56-1.39s.19-1.03.56-1.39c.39-.36.86-.53,1.41-.53s1.05.18,1.44.53.59.82.59,1.39Z"/>
        <path id="path4528" class="cls-3" d="m174.68,17.23h-2.1c.53.69.8,1.49.8,2.4,0,1.39-.52,2.48-1.57,3.28-1.03.78-2.34,1.17-3.94,1.17-.41,0-.8-.03-1.17-.08-.46.27-.69.64-.69,1.12,0,.59.43.88,1.28.88h3.12c2.65,0,3.97,1.07,3.97,3.22,0,1.39-.65,2.56-1.94,3.52-1.39,1.01-3.21,1.52-5.46,1.52-3.34,0-5.01-1.02-5.01-3.06,0-.76.27-1.4.8-1.92.44-.44.99-.75,1.63-.91v-.05c-.78-.41-1.17-1.07-1.17-2,0-.99.67-1.88,2.02-2.66v-.05c-1.69-.71-2.53-2.03-2.53-3.97,0-1.37.52-2.44,1.57-3.22.96-.73,2.2-1.09,3.73-1.09.76,0,1.49.11,2.18.32h4.8l-.29,1.6Zm-6.63-.35c-1.39,0-2.08.92-2.08,2.77,0,1.9.67,2.85,2.02,2.85s2.1-.95,2.1-2.85-.68-2.77-2.05-2.77Zm-1.33,11.88c-.27,0-.58-.02-.93-.05-.6.44-.91,1.02-.91,1.73,0,1.42.86,2.13,2.58,2.13,1.14,0,2.08-.23,2.82-.69.75-.44,1.12-.99,1.12-1.65,0-.98-.56-1.47-1.68-1.47h-3.01Z"/>
        <path id="path4530" class="cls-3" d="m180.88,27.12l1.49.35c.25.05.37.17.37.35,0,.36-.09.62-.27.8h-6.61c-.02-.14-.03-.24-.03-.29,0-.39.28-.68.83-.88l.85-.32v-9.78l-1.81-.32c-.02-.14-.03-.25-.03-.32,0-.5.33-.77.99-.83l4.21-.4v11.64Zm.29-15.83c0,.57-.2,1.03-.59,1.39-.39.34-.87.51-1.44.51s-1.04-.17-1.41-.51c-.37-.36-.56-.82-.56-1.39s.19-1.03.56-1.39c.39-.36.86-.53,1.41-.53s1.05.18,1.44.53c.39.36.59.82.59,1.39Z"/>
        <path id="path4532" class="cls-3" d="m192.25,17.23h-3.54v7.22c0,1.65.55,2.48,1.65,2.48.83,0,1.49-.21,1.97-.64.2.34.29.67.29,1.01,0,.27-.27.58-.8.93-.71.46-1.63.69-2.77.69-2.47,0-3.7-1.31-3.7-3.94v-7.75h-1.94c-.02-.18-.03-.29-.03-.35,0-.5.28-.81.83-.93l1.28-.32.69-3.62h2.53v3.62h3.84l-.29,1.6Z"/>
        <path id="path4534" class="cls-3" d="m203.53,25.68c0,.8.26,1.2.77,1.2.46,0,.83-.19,1.09-.56.27.3.4.59.4.85,0,.32-.22.66-.67,1.01-.57.48-1.29.72-2.16.72-1.35,0-2.18-.64-2.48-1.92h-.05c-.6,1.28-1.71,1.92-3.33,1.92-1.03,0-1.88-.33-2.56-.99-.66-.67-.99-1.54-.99-2.58,0-1.35.62-2.36,1.86-3.04,1.07-.57,2.43-.85,4.1-.85h.69v-1.09c0-1.26-.18-2.13-.53-2.61-.34-.5-.91-.75-1.71-.75-.3,0-.67.08-1.09.24-.23.55-.42,1.33-.56,2.34-.28.04-.52.05-.72.05-1.01,0-1.52-.47-1.52-1.41,0-.83.46-1.53,1.39-2.08.94-.55,2.12-.83,3.54-.83,3,0,4.5,1.59,4.5,4.77v5.59Zm-3.84-2.85c-1.86.14-2.8.86-2.8,2.16,0,.52.13.93.4,1.25.28.32.66.48,1.12.48.73,0,1.33-.28,1.81-.85v-3.06l-.53.03Z"/>
        <path id="path4536" class="cls-3" d="m211.29,27.12l1.47.35c.25.05.37.17.37.35,0,.36-.09.62-.27.8h-6.61c-.02-.14-.03-.24-.03-.29,0-.41.28-.7.83-.88l.88-.32v-15.99l-1.84-.29c-.02-.16-.03-.28-.03-.35,0-.5.33-.77.99-.83l4.24-.4v17.85Z"/>
        <path id="path4538" class="cls-3" d="m228.63,15.5c0,1.79-.63,3.2-1.89,4.21-1.37,1.07-3.34,1.6-5.91,1.6h-.69v5.67l1.97.37c.25.05.37.16.37.32,0,.12-.1.44-.29.93h-7.57c-.02-.14-.03-.26-.03-.35,0-.5.3-.83.91-.99l1.07-.27v-15.24l-1.57-.37c-.25-.05-.37-.15-.37-.29,0-.05.1-.35.29-.88h5.78c5.29,0,7.94,1.76,7.94,5.28h0Zm-3.73.13c0-2.38-1.41-3.57-4.24-3.57h-.53v7.43h.53c2.82,0,4.24-1.29,4.24-3.86Z"/>
        <path id="path4540" class="cls-3" d="m239.9,25.68c0,.8.26,1.2.77,1.2.46,0,.83-.19,1.09-.56.27.3.4.59.4.85,0,.32-.22.66-.67,1.01-.57.48-1.29.72-2.16.72-1.35,0-2.18-.64-2.48-1.92h-.05c-.6,1.28-1.71,1.92-3.33,1.92-1.03,0-1.88-.33-2.56-.99-.66-.67-.99-1.54-.99-2.58,0-1.35.62-2.36,1.86-3.04,1.07-.57,2.43-.85,4.1-.85h.69v-1.09c0-1.26-.18-2.13-.53-2.61-.34-.5-.91-.75-1.71-.75-.3,0-.67.08-1.09.24-.23.55-.42,1.33-.56,2.34-.28.04-.52.05-.72.05-1.01,0-1.52-.47-1.52-1.41,0-.83.46-1.53,1.39-2.08.94-.55,2.12-.83,3.54-.83,3,0,4.5,1.59,4.5,4.77v5.59Zm-3.84-2.85c-1.86.14-2.8.86-2.8,2.16,0,.52.13.93.4,1.25.28.32.66.48,1.12.48.73,0,1.33-.28,1.81-.85v-3.06l-.53.03Z"/>
        <path id="path4542" class="cls-3" d="m254.64,17.13l-3.25,3.94,4.16,6.05,1.31.32c.25.07.37.19.37.35,0,.37-.09.65-.27.83h-4.58l-3.81-5.94h-.96v4.45l1.41.35c.25.05.37.17.37.35,0,.36-.09.62-.27.8h-6.55c-.02-.14-.03-.24-.03-.29,0-.41.28-.7.83-.88l.88-.32v-15.99l-1.84-.29c-.02-.16-.03-.28-.03-.35,0-.5.33-.77.99-.83l4.24-.4v11.64h1.78l2.96-3.94-1.71-.37c-.02-.12-.03-.23-.03-.32,0-.43.25-.64.75-.64h4.88c.21,0,.32.09.32.27,0,.21-.06.44-.19.69l-1.73.53Z"/>
        <path id="path4544" class="cls-3" d="m266.24,17.23h-3.54v7.22c0,1.65.55,2.48,1.65,2.48.83,0,1.49-.21,1.97-.64.2.34.29.67.29,1.01,0,.27-.27.58-.8.93-.71.46-1.63.69-2.77.69-2.47,0-3.7-1.31-3.7-3.94v-7.75h-1.94c-.02-.18-.03-.29-.03-.35,0-.5.28-.81.83-.93l1.28-.32.69-3.62h2.53v3.62h3.84l-.29,1.6Z"/>
      </g>
      <g>
        <path id="path4546" class="cls-3" d="m198.41,36.12c-.8-.59-1.71-.88-2.72-.88-.82,0-1.48.21-2,.64-.52.43-.77,1.06-.77,1.89,0,.66.23,1.23.69,1.71.25.27.68.58,1.31.93l2.4,1.39c1.37.8,2.34,1.53,2.9,2.18.75.87,1.12,1.92,1.12,3.14,0,1.6-.55,2.89-1.65,3.86-1.15,1.01-2.73,1.52-4.72,1.52s-3.72-.39-4.98-1.17c-.09-1.39-.13-2.34-.13-2.88,0-1.07.38-1.6,1.15-1.6.23,0,.44.04.61.13l.64,2.88c.67.59,1.62.88,2.82.88,2.06,0,3.09-.83,3.09-2.48,0-.8-.29-1.47-.88-2-.25-.21-1.07-.74-2.45-1.57l-1.6-.96c-1.1-.67-1.89-1.32-2.37-1.94-.67-.87-1.01-1.95-1.01-3.25,0-1.53.57-2.75,1.71-3.68,1.15-.92,2.63-1.39,4.42-1.39s3.29.35,4.5,1.04c.09,1.19.13,2.09.13,2.69,0,1.05-.36,1.57-1.09,1.57-.27,0-.47-.03-.61-.08l-.51-2.58Z"/>
        <path id="path4548" class="cls-3" d="m212.33,43.05c-.6-1.6-1.45-2.4-2.53-2.4-2.01,0-3.01,1.55-3.01,4.66,0,3.37,1.17,5.06,3.52,5.06,1.03,0,2.03-.44,3.01-1.33.32.32.48.67.48,1.07,0,.46-.37.95-1.12,1.47-.92.62-2.07.93-3.44.93-1.88,0-3.34-.56-4.37-1.68-1.01-1.12-1.52-2.77-1.52-4.96s.67-3.92,2-5.2c1.26-1.19,2.86-1.79,4.8-1.79,1.39,0,2.42.3,3.09.91.5.43.75.92.75,1.49,0,.99-.55,1.58-1.65,1.76h0Z"/>
        <path id="path4550" class="cls-3" d="m220.14,40.81h.05c1.05-1.28,2.42-1.92,4.1-1.92,2.7,0,4.05,1.54,4.05,4.61v7.19l1.47.35c.25.05.37.17.37.35,0,.36-.09.62-.27.8h-6.5c-.02-.14-.03-.24-.03-.29,0-.39.28-.69.83-.91l.77-.29v-6.63c0-1.85-.75-2.77-2.24-2.77-1.01,0-1.88.34-2.61,1.01v8.39l1.39.32c.25.07.37.19.37.35,0,.37-.09.65-.27.83h-6.53c-.02-.14-.03-.24-.03-.29,0-.41.28-.7.83-.88l.88-.32v-15.99l-1.84-.29c-.02-.16-.03-.28-.03-.35,0-.5.33-.77.99-.83l4.24-.4v7.97Z"/>
        <path id="path4552" class="cls-3" d="m243.76,50.64l1.94.27c.02.07.03.14.03.21,0,.55-.33.85-.99.91l-4.18.32v-1.78h-.05c-.87,1.3-2.16,1.94-3.86,1.94-2.75,0-4.13-1.63-4.13-4.88v-6.71l-1.81-.32c-.02-.14-.03-.25-.03-.32,0-.5.33-.77.99-.83l4.21-.4v8.45c0,1.86.72,2.8,2.16,2.8.98,0,1.77-.41,2.37-1.23v-8.15l-1.81-.32c-.02-.14-.03-.25-.03-.32,0-.5.33-.77.99-.83l4.21-.4v11.59Z"/>
        <path id="path4554" class="cls-3" d="m251.67,50.69l1.47.35c.25.05.37.17.37.35,0,.36-.09.62-.27.8h-6.61c-.02-.14-.03-.24-.03-.29,0-.41.28-.7.83-.88l.88-.32v-15.99l-1.84-.29c-.02-.16-.03-.28-.03-.35,0-.5.33-.77.99-.83l4.24-.4v17.85Z"/>
        <path id="path4556" class="cls-3" d="m258.38,45.87c.02,1.51.38,2.66,1.09,3.44.62.69,1.47,1.04,2.53,1.04,1.31,0,2.43-.41,3.36-1.23.32.27.48.62.48,1.07s-.44.91-1.31,1.41c-1.03.6-2.24.91-3.62.91-3.98,0-5.97-2.18-5.97-6.55,0-2.22.6-3.98,1.81-5.28,1.12-1.19,2.54-1.79,4.26-1.79,1.55,0,2.74.42,3.57,1.25.78.8,1.17,1.9,1.17,3.3,0,.89-.11,1.7-.32,2.42h-7.06Zm3.92-1.57c.09-.41.13-.8.13-1.17,0-1.7-.58-2.56-1.73-2.56-1.4,0-2.17,1.24-2.29,3.73h3.89Z"/>
      </g>
    </g>
  </g>
</svg>