<svg xmlns="http://www.w3.org/2000/svg" xmlns:xlink="http://www.w3.org/1999/xlink" version="1.1"  x="0px" y="0px" width="32" height="32" viewBox="0 0 24 24" style="fill: rgb(0, 30, 73);" xml:space="preserve" preserveAspectRatio="none" viewbox="0 0 32 32">
<path d="M14,2v4c0,1.1,0.9,2,2,2h4L14,2z M16,10c-2.2,0-4-1.79-4-4V2H6C4.9,2,4,2.9,4,4v16c0,1.1,0.9,2,2,2h12c1.1,0,2-0.9,2-2V10  H16z M13,20h-2v-2h2V20z M13.71,15.71C13.22,16.2,13,16.44,13,17h-2c0-1.41,0.75-2.16,1.29-2.71C12.78,13.8,13,13.56,13,13  c0-0.8-0.55-0.99-1.01-1c-0.8,0-0.98,0.55-0.99,1.01L9,13c0-1.21,0.8-3,3-3c1.21,0,3,0.8,3,3C15,14.41,14.25,15.16,13.71,15.71z" style="fill: rgb(0, 30, 73);"></path>
</svg>