<svg xmlns="http://www.w3.org/2000/svg" xmlns:xlink="http://www.w3.org/1999/xlink" version="1.1"  x="0px" y="0px" width="32" height="32" viewBox="0 0 24 24" enable-background="new 0 0 24 24" xml:space="preserve" preserveAspectRatio="none" style="fill: rgb(0, 30, 73);" viewbox="0 0 32 32">
<polygon points="13.5,7 13.5,12.25 17.5,14.62 16.75,15.85 12,13 12,7 " style="fill: rgb(0, 30, 73);"></polygon>
<path d="M22,12c0,4.97-4.03,9-9,9c-2.48,0-4.74-1.01-6.36-2.64l1.41-1.41C9.32,18.22,11.07,19,13,19c3.86,0,7-3.14,7-7  c0-3.87-3.13-7-7-7s-7,3.13-7,7h3l-4.04,4.04c-0.01-0.01-0.01-0.021-0.02-0.03L1,12h3c0-4.97,4.03-9,9-9C17.97,3,22,7.03,22,12z" style="fill: rgb(0, 30, 73);"></path>
</svg>