<svg xmlns="http://www.w3.org/2000/svg" xmlns:xlink="http://www.w3.org/1999/xlink" version="1.1"  x="0px" y="0px" width="32" height="32" viewBox="0 0 24 24" style="fill: rgb(0, 30, 73);" xml:space="preserve" preserveAspectRatio="none" viewbox="0 0 32 32">
<path d="M20,6h-3V5c0-2.2-1.79-3-3-3h-4C7.8,2,7,3.79,7,5v1H4C2.9,6,2,6.9,2,8v11c0,1.1,0.9,2,2,2h16c1.1,0,2-0.9,2-2V8  C22,6.9,21.1,6,20,6z M15,14h-2v2h-2v-2H9v-2h2v-2h2v2h2V14z M15,6H9V5.01C9.01,4.55,9.19,4,10,4h3.99C14.45,4.01,15,4.19,15,5V6z" style="fill: rgb(0, 30, 73);"></path>
</svg>