<svg version="1.1"  xmlns="http://www.w3.org/2000/svg" xmlns:xlink="http://www.w3.org/1999/xlink" x="0px" y="0px" width="32" height="32" viewBox="0 0 24 24" style="fill: rgb(0, 30, 73);" xml:space="preserve" preserveAspectRatio="none" viewbox="0 0 32 32">
<path d="M12,2C6.486,2,2,6.486,2,12c0,5.514,4.486,10,10,10c5.514,0,10-4.486,10-10C22,6.486,17.514,2,12,2z M18.918,8h-2.264
	c-0.223-1.186-0.55-2.223-0.964-3.091C17.037,5.613,18.156,6.689,18.918,8z M12,4c1.132,0,2.096,1.594,2.608,4H9.392
	C9.904,5.594,10.869,4,12,4z M8.31,4.909C7.896,5.777,7.569,6.814,7.346,8H5.082C5.844,6.689,6.963,5.613,8.31,4.909z M15,12
	c0,0.694-0.035,1.362-0.095,2h-1.39l-0.8,2h1.892c-0.512,2.406-1.476,4-2.608,4c-0.27,0-0.53-0.096-0.778-0.268l-0.175,0.437
	l-1.694-1.694l-1.236,1.236L7.41,19.004l2.097-2.097L10.6,18l2.4-6l-6,2.4l1.093,1.093L5.996,17.59l-0.707-0.707l0.234-0.234
	C5.37,16.437,5.214,16.227,5.082,16h1.089l0.353-0.353L4.878,14H4.263C4.097,13.359,4,12.692,4,12s0.097-1.359,0.263-2h2.819
	C7.03,10.639,7,11.305,7,12c0,0.371,0.028,0.712,0.044,1.067l1.969-0.788C9.012,12.183,9,12.097,9,12c0-0.694,0.035-1.362,0.095-2
	h5.617l0.481-0.192l-0.265,0.662C14.964,10.968,15,11.469,15,12z M15.69,19.091c0.414-0.868,0.741-1.906,0.964-3.091h2.264
	C18.156,17.311,17.037,18.387,15.69,19.091z M16.917,14C16.97,13.361,17,12.695,17,12s-0.03-1.361-0.083-2h2.819
	C19.903,10.641,20,11.308,20,12s-0.097,1.359-0.263,2H16.917z" style="fill: rgb(0, 30, 73);"></path>
</svg>