<svg xmlns="http://www.w3.org/2000/svg" xmlns:xlink="http://www.w3.org/1999/xlink" version="1.1"  x="0px" y="0px" width="32" height="32" viewBox="0 0 24 24" style="fill: rgb(0, 30, 73);" xml:space="preserve" preserveAspectRatio="none" viewbox="0 0 32 32">
<path d="M20,6c0-2-1-4-3.5-4s-2.5,1-4,1s-1.5-1-4-1S5,4,5,6s-3,2-3,6s3,4,3,6c0,3,3.5,3,3.5,3c1.35,0,1.97-0.29,2.5-0.56v1.06  c0,0.83,0.67,1.5,1.5,1.5s1.5-0.67,1.5-1.5v-1.06c0.53,0.27,1.15,0.56,2.5,0.56c0,0,3.5,0,3.5-3c0-2,3-2,3-6S20,8,20,6z M19.5,11  c1.411,0,1.497-1.252,1.5-1.503c0.003-0.275,0.2-0.509,0.503-0.496C21.778,9.003,22,9.225,22,9.5c0,0.865-0.522,2.5-2.5,2.5  c-0.276,0-0.5-0.224-0.5-0.5S19.224,11,19.5,11z M14.5,4C14.776,4,15,4.224,15,4.5C15.003,4.748,15.089,6,16.5,6  C17.364,6,19,6.522,19,8.5S17.364,11,16.5,11c-0.276,0-0.5-0.224-0.5-0.5c0-0.275,0.223-0.499,0.497-0.5  C16.749,9.997,18,9.911,18,8.5c0-1.412-1.252-1.497-1.503-1.5C14.522,7,14,5.365,14,4.5C14,4.224,14.224,4,14.5,4z M15.5,8  C15.776,8,16,8.224,16,8.5c0,0.275-0.223,0.499-0.497,0.5C15.251,9.003,14,9.089,14,10.5c0,1.412,1.252,1.497,1.503,1.5  C17.478,12,18,13.636,18,14.5c0,0.276-0.224,0.5-0.5,0.5S17,14.776,17,14.5c-0.003-0.248-0.089-1.5-1.5-1.5  c-0.864,0-2.5-0.522-2.5-2.5S14.636,8,15.5,8z M12,4.5C12,4.224,12.224,4,12.5,4S13,4.224,13,4.5v3C13,7.776,12.776,8,12.5,8  S12,7.776,12,7.5V4.5z M12,10.5c0,1.978-1.635,2.5-2.5,2.5c-1.412,0-1.497,1.252-1.5,1.503c-0.003,0.273-0.226,0.495-0.5,0.495  c-0.001,0-0.002,0-0.003,0C7.222,14.997,7,14.775,7,14.5C7,13.636,7.522,12,9.5,12c0.248-0.003,1.5-0.088,1.5-1.5  S9.748,9.003,9.497,9C9.222,8.997,9,8.772,9.001,8.497S9.225,8,9.5,8C10.365,8,12,8.522,12,10.5z M8.5,6  C9.912,6,9.997,4.748,10,4.497c0.002-0.275,0.202-0.481,0.503-0.496C10.778,4.003,11,4.225,11,4.5C11,5.365,10.478,7,8.5,7  C8.252,7.003,7,7.088,7,8.5S8.252,9.997,8.503,10C8.778,10.003,9,10.228,8.999,10.503S8.775,11,8.5,11C7.635,11,6,10.478,6,8.5  S7.635,6,8.5,6z M4.5,9C4.775,9,4.999,9.223,5,9.498C5.003,9.749,5.089,11,6.5,11C6.776,11,7,11.224,7,11.5S6.776,12,6.5,12  C4.522,12,4,10.365,4,9.5C4,9.224,4.224,9,4.5,9z M7.5,18C5.522,18,5,16.364,5,15.5c0-1.411-1.252-1.497-1.503-1.5  C3.222,13.997,3,13.772,3.001,13.497S3.225,13,3.5,13C4.365,13,6,13.522,6,15.5C6.003,15.748,6.088,17,7.5,17s1.497-1.252,1.5-1.503  c0.003-0.274,0.239-0.484,0.503-0.495C9.778,15.003,10,15.225,10,15.5C10,16.364,9.478,18,7.5,18z M14.5,19  c-0.56,0-1.46-0.22-2-0.93c-0.54,0.71-1.44,0.93-2,0.93c-0.28,0-0.5-0.22-0.5-0.5s0.22-0.5,0.5-0.5c0.25,0,1.5-0.09,1.5-1.5v-2  c0-0.28,0.22-0.5,0.5-0.5s0.5,0.22,0.5,0.5v2c0,1.41,1.25,1.5,1.5,1.5c0.28,0,0.5,0.23,0.5,0.5C15,18.78,14.78,19,14.5,19z M21.5,14  c-0.248,0.003-1.5,0.089-1.5,1.5c0,0.864-0.522,2.5-2.5,2.5S15,16.364,15,15.5c0-0.276,0.224-0.5,0.5-0.5  c0.275,0,0.499,0.223,0.5,0.497C16.003,15.749,16.089,17,17.5,17s1.497-1.252,1.5-1.503C19,13.522,20.636,13,21.5,13  c0.276,0,0.5,0.224,0.5,0.5S21.776,14,21.5,14z" style="fill: rgb(0, 30, 73);"></path>
</svg>