<svg xmlns="http://www.w3.org/2000/svg" xmlns:xlink="http://www.w3.org/1999/xlink" version="1.1"  x="0px" y="0px" width="32" height="32" viewBox="0 0 24 24" style="fill: rgb(0, 30, 73);" xml:space="preserve" preserveAspectRatio="none" viewbox="0 0 32 32">
<path style="opacity: 0.4; fill: rgb(0, 30, 73);" d="M9,13.5c0,0.46,0.06,0.91,0.16,1.34C8.63,14.94,8.07,15,7.5,15c-0.86,0-1.68-0.13-2.45-0.36L1,17  l1.18-3.92C0.83,11.9,0,10.29,0,8.5C0,4.91,3.36,2,7.5,2c3.61,0,6.63,2.21,7.34,5.16C11.5,7.82,9,10.41,9,13.5z"></path>
<path d="M21.82,18.08L23,22l-4.05-2.36C18.18,19.87,17.36,20,16.5,20C12.36,20,9,17.09,9,13.5S12.36,7,16.5,7  c4.14,0,7.5,2.91,7.5,6.5C24,15.29,23.17,16.9,21.82,18.08z" style="fill: rgb(0, 30, 73);"></path>
</svg>