<svg xmlns="http://www.w3.org/2000/svg" xmlns:xlink="http://www.w3.org/1999/xlink" version="1.1"  x="0px" y="0px" width="32" height="32" viewBox="0 0 24 24" style="fill: rgb(0, 30, 73);" xml:space="preserve" preserveAspectRatio="none" viewbox="0 0 32 32">
<path id="2631050224__x3C_Trazado_x3E_" d="M8,11H6V8H3V6h3V3h2v3h3v2H8V11z M16,13h2v2h-2V13z M18,21h-2v-2h2V21z M21,18h-8v-2h8V18z M13,6h8  v2h-8V6z M10.71,14.71l-1.42-1.42L7,15.58l-2.29-2.29l-1.42,1.42L5.58,17l-2.29,2.29l1.42,1.42L7,18.42l2.29,2.29l1.42-1.42L8.42,17  L10.71,14.71z" style="fill: rgb(0, 30, 73);"></path>
</svg>