<svg xmlns="http://www.w3.org/2000/svg"  data-name="Layer 1" viewBox="0 0 24 24" preserveAspectRatio="none" style="fill: rgb(0, 30, 73);" width="32" height="32" viewbox="0 0 32 32"><title>responsive_material_black</title><path id="263497652_c_focus" d="M15,16H11l-1,1.5V8.17a.84.84,0,0,0-.83-.84H.83A.84.84,0,0,0,0,8.17v15A.83.83,0,0,0,.83,24H9.17a.83.83,0,0,0,.83-.83V20h7V19ZM5,23.38a1,1,0,1,1,1-1.05A1,1,0,0,1,5,23.38Zm3.33-2.71H1.67V9H8.33Z" style="fill: rgb(0, 30, 73);"></path><path d="M24,14a2,2,0,0,1-2,2H10V14ZM1.67,20.67H8.33V9.51L1.67,20.16ZM22,12V2L15.79,12H22Z" opacity="0.6" style="fill: rgb(0, 30, 73);"></path><path d="M1.67,9H8.33v.51L1.67,20.16ZM4,2V7.33H9.17a.84.84,0,0,1,.83.84V12h5.79L22,2Z" opacity="0.8" style="fill: rgb(0, 30, 73);"></path><path d="M24,2V14H10V12H22V2H4V7.33H2V2A2,2,0,0,1,4,0H22A2,2,0,0,1,24,2ZM6,22.33a1,1,0,1,0-1,1.05A1,1,0,0,0,6,22.33Z" opacity="0.9" style="fill: rgb(0, 30, 73);"></path></svg>