<svg xmlns="http://www.w3.org/2000/svg" xmlns:xlink="http://www.w3.org/1999/xlink" version="1.1"  x="0px" y="0px" width="32" height="32" viewBox="0 0 24 24" style="fill: rgb(0, 30, 73);" xml:space="preserve" preserveAspectRatio="none" viewbox="0 0 32 32">
<path d="M19.971,12C21.96,10.7,22.27,9.03,22,7.73C21.71,7.9,21.359,8,21,8h-0.01c0.16,0.92-0.01,2.28-1.86,3.35L19,11.42l-3-1.73  V6.23l0.13-0.08c1.21-0.7,2.181-0.71,2.899-0.46C19.08,5.33,19.23,5,19.46,4.73C18.54,4.39,17.37,4.4,15.98,5.1  C15.811,1.87,13.5,1,12,1S8.2,1.87,8.02,5.1c-2.89-1.46-4.8,0.1-5.55,1.4C1.73,7.8,1.33,10.23,4.04,12C2.05,13.3,1.73,14.96,2,16.27  C2.29,16.1,2.64,16,3,16h0.01c-0.16-0.92,0.01-2.279,1.86-3.35L5,12.58l3,1.729v3.461l-0.13,0.08c-1.21,0.699-2.18,0.709-2.9,0.459  c-0.05,0.36-0.2,0.69-0.43,0.961c0.92,0.34,2.09,0.33,3.48-0.369C8.2,22.12,10.5,23,12,23s3.8-0.88,3.98-4.1  c2.89,1.459,4.799-0.11,5.549-1.4C22.279,16.2,22.67,13.77,19.971,12z M8,13.15L6,12l2-1.15V13.15z M8,9.69l-3,1.73l-0.13-0.07  C1.89,9.63,3.27,7.12,3.34,7c0.07-0.12,1.55-2.57,4.53-0.85L8,6.23V9.69z M9,6.8l2,1.16L9,9.11V6.8z M9,14.891l2,1.149L9,17.2  V14.891z M15,18.5c0,3.439-2.86,3.5-3,3.5s-3-0.061-3-3.5v-0.15l3-1.729l3,1.729V18.5z M15,17.2l-2-1.16l2-1.149V17.2z M15,13.73  l-3,1.729L9,13.73v-3.46l3-1.73l3,1.73V13.73z M15,9.11l-2-1.15l2-1.16V9.11z M15,5.65l-3,1.73L9,5.65V5.5C9,2.06,11.86,2,12,2  s3,0.06,3,3.5V5.65z M16,10.84L18,12l-2,1.16V10.84z M20.66,17c-0.07,0.12-1.551,2.561-4.53,0.85L16,17.77v-3.459l3-1.729  l0.13,0.069C22.109,14.37,20.73,16.88,20.66,17z M12,10c1.104,0,2,0.896,2,2s-0.896,2-2,2s-2-0.896-2-2S10.896,10,12,10z" style="fill: rgb(0, 30, 73);"></path>
<path style="opacity: 0.4; fill: rgb(0, 30, 73);" d="M21,4c1.104,0,2,0.896,2,2s-0.896,2-2,2s-2-0.896-2-2S19.896,4,21,4z M3,16  c1.104,0,2,0.896,2,2s-0.896,2-2,2s-2-0.896-2-2S1.896,16,3,16z"></path>
</svg>