<svg xmlns="http://www.w3.org/2000/svg" xmlns:xlink="http://www.w3.org/1999/xlink" version="1.1"  x="0px" y="0px" width="32" height="32" viewBox="0 0 24 24" style="fill: rgb(0, 30, 73);" xml:space="preserve" preserveAspectRatio="none" viewbox="0 0 32 32">
<polygon id="263849876__x3C_Trazado_x5F_compuesto_x3E_" points="20,17 20,14 12,14 12,12 15,12 15,8 12,8 12,6 15,6 15,2 8,2 8,6 11,6 11,8   8,8 8,12 11,12 11,14 3,14 3,17 0,17 0,21 7,21 7,17 4,17 4,15 11,15 11,17 8,17 8,21 15,21 15,17 12,17 12,15 19,15 19,17 16,17   16,21 23,21 23,17 " style="fill: rgb(0, 30, 73);"></polygon>
</svg>