<svg xmlns="http://www.w3.org/2000/svg" xmlns:xlink="http://www.w3.org/1999/xlink" version="1.1"  x="0px" y="0px" width="32" height="32" viewBox="0 0 24 24" style="fill: rgb(0, 30, 73);" xml:space="preserve" preserveAspectRatio="none" viewbox="0 0 32 32">
<path d="M17,6v2h-2V5l-3-3L9,5v3H7V6H3v16h6v-1c0,0,0-3,3-3s3,3,3,3v1h6V6H17z M7,20H5v-2h2V20z M7,16H5v-2h2V16z M7,12H5v-2h2V12z   M11,16H9v-2h2V16z M11,12H9v-2h2V12z M11,7V5h2v2H11z M15,16h-2v-2h2V16z M15,12h-2v-2h2V12z M19,20h-2v-2h2V20z M19,16h-2v-2h2V16  z M19,12h-2v-2h2V12z" style="fill: rgb(0, 30, 73);"></path>
</svg>