<?xml version="1.0" encoding="utf-8"?>
<!-- Generator: Adobe Illustrator 27.9.0, SVG Export Plug-In . SVG Version: 6.00 Build 0)  -->
<svg version="1.1" id="Wort-_x2F_Bildmarke_Schulportal_SH_RGB"
	 xmlns="http://www.w3.org/2000/svg" xmlns:xlink="http://www.w3.org/1999/xlink" x="0px" y="0px" viewBox="0 0 693.6 105.18"
	 style="enable-background:new 0 0 693.6 105.18;" xml:space="preserve">
<style type="text/css">
	.st0{fill:url(#SVGID_1_);}
	.st1{fill:#001E49;}
</style>
<linearGradient id="SVGID_1_" gradientUnits="userSpaceOnUse" x1="-35.3293" y1="55.908" x2="75.8562" y2="55.908">
	<stop  offset="0.5116" style="stop-color:#1EAE9C"/>
	<stop  offset="0.6577" style="stop-color:#1EAE9C"/>
	<stop  offset="0.6639" style="stop-color:#1EAE9C"/>
	<stop  offset="1" style="stop-color:#001E49"/>
	<stop  offset="1" style="stop-color:#001E49"/>
	<stop  offset="1" style="stop-color:#003064"/>
	<stop  offset="1" style="stop-color:#003064"/>
</linearGradient>
<path class="st0" d="M47.99,89.74V52.81l-12.35-9.9h24.72v32.33c9.28-4.57,15.68-14.12,15.68-25.15c0-15.45-12.57-28.02-28.02-28.02
	S20.01,34.64,20.01,50.09c0,11.02,6.34,20.44,15.63,25.01"/>
<g>
	<path class="st1" d="M118.49,43.11c-1.61-2.06-4.56-3.39-7.01-3.39s-5.51,0.83-5.51,3.95c0,2.61,2.34,3.45,6.06,4.62
		c5.34,1.72,12.24,4,12.24,11.85c0,9.07-7.29,13.13-15.07,13.13c-5.62,0-11.29-2.06-14.74-5.67l6.23-6.34
		c1.89,2.39,5.4,4.17,8.51,4.17c2.89,0,5.45-1.11,5.45-4.28c0-3-3-3.95-8.18-5.62c-5.01-1.61-10.07-4.17-10.07-11.29
		c0-8.73,7.9-12.35,15.24-12.35c4.45,0,9.46,1.67,12.9,4.84L118.49,43.11z"/>
	<path class="st1" d="M158.26,73.32c-12.12,0-21.19-8.45-21.19-20.8c0-12.62,9.34-20.69,21.36-20.69c5.51,0,11.46,2,14.74,5.78
		l-6.45,6.45c-1.78-2.45-4.95-3.62-7.95-3.62c-6.62,0-11.35,5.12-11.35,12.07c0,7.17,4.62,12.07,11.18,12.07
		c3.73,0,6.67-1.67,8.34-4l6.62,6.23C170.1,70.81,164.87,73.32,158.26,73.32z"/>
	<path class="st1" d="M210.81,72.26V55.8h-15.35v16.46h-9.51V32.88h9.51v14.91h15.35V32.88h9.51v39.38H210.81z"/>
	<path class="st1" d="M253.19,73.32c-10.35,0-16.8-6.45-16.8-15.91V32.88h9.46v23.75c0,4.23,2.06,8.12,7.4,8.12
		c5.4,0,7.4-3.89,7.4-8.12V32.88h9.51v24.53C270.15,66.86,263.47,73.32,253.19,73.32z"/>
	<path class="st1" d="M286.16,72.26V32.88h9.57v31.09h15.24v8.29H286.16z"/>
	<path class="st1" d="M337.99,57.41h-4.73v14.85h-9.51V32.88h14.46c8.62,0,15.41,3.11,15.41,12.12
		C353.62,54.13,346.22,57.41,337.99,57.41z M337.44,40.56h-4.17v9.29h4c3.56,0,6.84-1.06,6.84-4.78
		C344.11,41.28,340.83,40.56,337.44,40.56z"/>
	<path class="st1" d="M383.93,73.32c-12.29,0-21.41-8.45-21.41-20.91c0-12.62,9.12-20.58,21.41-20.58
		c12.35,0,21.47,7.95,21.47,20.58C405.4,64.86,396.28,73.32,383.93,73.32z M383.93,40.39c-6.67,0-11.23,5.12-11.23,12.01
		c0,7.12,4.62,12.24,11.23,12.24s11.29-5.12,11.29-12.24C395.22,45.51,390.6,40.39,383.93,40.39z"/>
	<path class="st1" d="M438.87,72.26l-8.51-15.63h-3.23v15.63h-9.34V32.88h15.02c7.56,0,15.07,2.89,15.07,11.9
		c0,5.28-3.11,9.07-8.18,10.62L450,72.26H438.87z M432.14,40.56h-5.06v9.18h4.5c3.06,0,6.9-0.78,6.9-4.78
		C438.48,41.28,434.98,40.56,432.14,40.56z"/>
	<path class="st1" d="M478.08,41v31.26h-9.51V41h-11.12v-8.12h31.76V41H478.08z"/>
	<path class="st1" d="M525.24,72.26l-3.06-7.73h-15.24l-2.89,7.73H493.7l16.52-39.38h9.23l16.35,39.38H525.24z M514.67,43.39
		l-5.01,13.52h9.9L514.67,43.39z"/>
	<path class="st1" d="M547.43,72.26V32.88h9.57v31.09h15.24v8.29H547.43z"/>
	<path class="st1" d="M621.34,38.55c-2.17-2.61-4.89-4-8.68-4c-4.23,0-9.12,2.56-9.12,7.95c0,11.46,20.69,5.56,20.69,19.69
		c0,7.56-6.28,11.12-12.57,11.12c-5.12,0-9.07-2.06-11.9-5.67l2.22-1.95c2.84,3.34,5.84,4.84,9.68,4.84c4.62,0,9.34-2.84,9.34-8.18
		c0-11.57-20.63-5.84-20.63-19.86c0-7.29,6.45-10.68,12.46-10.68c5.17,0,8.79,2.06,10.79,4.67L621.34,38.55z"/>
	<path class="st1" d="M634.9,32.88h3.17v17.46h22.97V32.88h3.17v39.38h-3.17V53.29h-22.97v18.97h-3.17V32.88z"/>
</g>
</svg>
