<?xml version="1.0" encoding="utf-8"?>
<!-- Generator: Adobe Illustrator 27.9.0, SVG Export Plug-In . SVG Version: 6.00 Build 0)  -->
<svg version="1.1" id="Wort-_x2F_Bildmarke_Schulportal_SH_RGB"
	 xmlns="http://www.w3.org/2000/svg" xmlns:xlink="http://www.w3.org/1999/xlink" x="0px" y="0px" viewBox="0 0 717.35 121.3"
	 style="enable-background:new 0 0 717.35 121.3;" xml:space="preserve">
<style type="text/css">
	.st0{fill:#FFFFFF;}
	.st1{fill:url(#SVGID_1_);}
</style>
<g>
	<g>
		<circle class="st0" cx="60.63" cy="60.68" r="30.29"/>
		<linearGradient id="SVGID_1_" gradientUnits="userSpaceOnUse" x1="1.9079" y1="64.0441" x2="79.6623" y2="64.0441">
			<stop  offset="0.5116" style="stop-color:#1EAE9C"/>
			<stop  offset="0.6577" style="stop-color:#1EAE9C"/>
			<stop  offset="0.6639" style="stop-color:#1EAE9C"/>
			<stop  offset="1" style="stop-color:#001E49"/>
			<stop  offset="1" style="stop-color:#001E49"/>
			<stop  offset="1" style="stop-color:#003064"/>
			<stop  offset="1" style="stop-color:#003064"/>
		</linearGradient>
		<path class="st1" d="M60.18,87.71V61.88l-8.64-6.93h17.29v22.61c6.49-3.2,10.97-9.88,10.97-17.59c0-10.8-8.79-19.59-19.59-19.59
			s-19.59,8.79-19.59,19.59c0,7.71,4.44,14.29,10.93,17.49"/>
	</g>
	<g>
		<path class="st0" d="M141.31,51.41c-1.61-2.06-4.56-3.39-7.01-3.39s-5.51,0.83-5.51,3.95c0,2.61,2.34,3.45,6.06,4.62
			c5.34,1.72,12.24,4,12.24,11.85c0,9.07-7.29,13.13-15.07,13.13c-5.62,0-11.29-2.06-14.74-5.67l6.23-6.34
			c1.89,2.39,5.4,4.17,8.51,4.17c2.89,0,5.45-1.11,5.45-4.28c0-3-3-3.95-8.18-5.62c-5.01-1.61-10.07-4.17-10.07-11.29
			c0-8.73,7.9-12.35,15.24-12.35c4.45,0,9.46,1.67,12.9,4.84L141.31,51.41z"/>
		<path class="st0" d="M181.08,81.61c-12.12,0-21.19-8.45-21.19-20.8c0-12.62,9.34-20.69,21.36-20.69c5.51,0,11.46,2,14.74,5.78
			l-6.45,6.45c-1.78-2.45-4.95-3.62-7.95-3.62c-6.62,0-11.35,5.12-11.35,12.07c0,7.17,4.62,12.07,11.18,12.07
			c3.73,0,6.67-1.67,8.34-4l6.62,6.23C192.92,79.11,187.69,81.61,181.08,81.61z"/>
		<path class="st0" d="M233.63,80.56V64.09h-15.35v16.46h-9.51V41.18h9.51v14.91h15.35V41.18h9.51v39.38H233.63z"/>
		<path class="st0" d="M276.01,81.61c-10.35,0-16.8-6.45-16.8-15.91V41.18h9.46v23.75c0,4.23,2.06,8.12,7.4,8.12
			c5.4,0,7.4-3.89,7.4-8.12V41.18h9.51v24.53C292.97,75.16,286.3,81.61,276.01,81.61z"/>
		<path class="st0" d="M308.98,80.56V41.18h9.57v31.09h15.24v8.29H308.98z"/>
		<path class="st0" d="M360.81,65.71h-4.73v14.85h-9.51V41.18h14.46c8.62,0,15.41,3.11,15.41,12.12
			C376.44,62.42,369.04,65.71,360.81,65.71z M360.26,48.85h-4.17v9.29h4c3.56,0,6.84-1.06,6.84-4.78
			C366.93,49.58,363.65,48.85,360.26,48.85z"/>
		<path class="st0" d="M406.75,81.61c-12.29,0-21.41-8.45-21.41-20.91c0-12.62,9.12-20.58,21.41-20.58
			c12.35,0,21.47,7.95,21.47,20.58C428.22,73.16,419.1,81.61,406.75,81.61z M406.75,48.69c-6.67,0-11.23,5.12-11.23,12.01
			c0,7.12,4.62,12.24,11.23,12.24s11.29-5.12,11.29-12.24C418.04,53.8,413.42,48.69,406.75,48.69z"/>
		<path class="st0" d="M461.69,80.56l-8.51-15.63h-3.23v15.63h-9.34V41.18h15.02c7.56,0,15.07,2.89,15.07,11.9
			c0,5.28-3.11,9.07-8.18,10.62l10.29,16.85H461.69z M454.96,48.85h-5.06v9.18h4.5c3.06,0,6.9-0.78,6.9-4.78
			C461.3,49.58,457.8,48.85,454.96,48.85z"/>
		<path class="st0" d="M500.9,49.3v31.26h-9.51V49.3h-11.12v-8.12h31.76v8.12H500.9z"/>
		<path class="st0" d="M548.06,80.56L545,72.82h-15.24l-2.89,7.73h-10.34l16.52-39.38h9.23l16.35,39.38H548.06z M537.49,51.69
			l-5.01,13.52h9.9L537.49,51.69z"/>
		<path class="st0" d="M570.25,80.56V41.18h9.57v31.09h15.24v8.29H570.25z"/>
		<path class="st0" d="M644.16,46.85c-2.17-2.61-4.89-4-8.68-4c-4.23,0-9.12,2.56-9.12,7.95c0,11.46,20.69,5.56,20.69,19.69
			c0,7.56-6.28,11.12-12.57,11.12c-5.12,0-9.07-2.06-11.9-5.67l2.22-1.95c2.84,3.34,5.84,4.84,9.68,4.84c4.62,0,9.34-2.84,9.34-8.18
			c0-11.57-20.63-5.84-20.63-19.86c0-7.29,6.45-10.68,12.46-10.68c5.17,0,8.79,2.06,10.79,4.67L644.16,46.85z"/>
		<path class="st0" d="M657.72,41.18h3.17v17.46h22.97V41.18h3.17v39.38h-3.17V61.59h-22.97v18.97h-3.17V41.18z"/>
	</g>
</g>
</svg>
