<svg version="1.1"  xmlns="http://www.w3.org/2000/svg" xmlns:xlink="http://www.w3.org/1999/xlink" x="0px" y="0px" width="32" height="32" viewBox="0 0 24 24" style="fill: rgb(0, 30, 73);" xml:space="preserve" preserveAspectRatio="none" viewbox="0 0 32 32">
<path d="M21,2H3C2.448,2,2,2.448,2,3v18c0,0.553,0.448,1,1,1h18c0.553,0,1-0.447,1-1V3C22,2.448,21.553,2,21,2z M4,10h16v4H4V10z
	 M4,4h16v4H4V4z M20,20H4v-4h16V20z M7.25,12c0,0.69-0.56,1.25-1.25,1.25S4.75,12.69,4.75,12S5.31,10.75,6,10.75S7.25,11.31,7.25,12
	z M4.75,18c0-0.69,0.56-1.25,1.25-1.25S7.25,17.31,7.25,18S6.69,19.25,6,19.25S4.75,18.69,4.75,18z M7.25,6
	c0,0.69-0.56,1.25-1.25,1.25S4.75,6.69,4.75,6S5.31,4.75,6,4.75S7.25,5.31,7.25,6z" style="fill: rgb(0, 30, 73);"></path>
</svg>