<svg xmlns="http://www.w3.org/2000/svg" xmlns:xlink="http://www.w3.org/1999/xlink" version="1.1"  x="0px" y="0px" width="32" height="32" viewBox="0 0 24 24" enable-background="new 0 0 24 24" xml:space="preserve" preserveAspectRatio="none" style="fill: rgb(0, 30, 73);" viewbox="0 0 32 32">
<path d="M11,4c0-1.105,0.894-2,2-2s2,0.895,2,2s-0.894,2-2,2S11,5.105,11,4z M3.5,17C2.672,17,2,17.672,2,18.5S2.672,20,3.5,20  S5,19.328,5,18.5S4.328,17,3.5,17z M5,6v2c1.935,0,3.568,0.125,4.978,0.338L5.062,21.653l1.876,0.693L9.65,15H11v3  c0,0.553,0.448,1,1,1h4v-2h-3v-2.438c0-1.102,0.011-2.591,0.885-5.208c2.249,0.917,3.485,2.182,4.373,3.437l1.633-1.154  C17.097,7.686,12.644,6,5,6z" style="fill: rgb(0, 30, 73);"></path>
</svg>