<svg xmlns="http://www.w3.org/2000/svg" xmlns:xlink="http://www.w3.org/1999/xlink" version="1.1"  x="0px" y="0px" width="32" height="32" viewBox="0 0 24 24" style="fill: rgb(0, 30, 73);" xml:space="preserve" preserveAspectRatio="none" viewbox="0 0 32 32">
<path d="M20,8H10c-1.1,0-2,0.9-2,2v8c0,1.1,0.9,2,2,2h8l4,2V10C22,8.9,21.1,8,20,8z M19,15.13l-1,1.74l-2-1.14V18h-2v-2.27  l-1.93,1.14l-1-1.74L13.04,14l-1.97-1.13l1-1.74L14,12.27V10h2v2.27l2-1.14l1,1.74L17.04,14L19,15.13z" style="fill: rgb(0, 30, 73);"></path>
<path d="M16,4v2h-6c-2.21,0-4,1.79-4,4v4l-4,2V4c0-1.1,0.9-2,2-2h10C15.1,2,16,2.9,16,4z" style="fill: rgb(0, 30, 73);"></path>
</svg>