<svg version="1.1"  xmlns="http://www.w3.org/2000/svg" xmlns:xlink="http://www.w3.org/1999/xlink" x="0px" y="0px" width="32" height="32" viewBox="0 0 24 24" style="fill: rgb(0, 30, 73);" xml:space="preserve" preserveAspectRatio="none" viewbox="0 0 32 32">
<path d="M21.026,10.737c-0.014-0.023-1.615-2.176-1.615-2.176c-0.015-0.023-0.3-0.373-0.326-0.4
	c-0.462-0.51-1.067-0.883-1.756-1.051l-0.461-0.858C16.57,5.519,15.854,5,15.016,5c-1.103,0-2,0.897-2,2L13,12h-2V7
	c0-1.103-0.897-2-2-2C8.162,5,7.446,5.518,7.149,6.25L6.69,7.104C5.993,7.271,5.382,7.646,4.916,8.16
	C4.889,8.188,4.634,8.502,4.634,8.502c-0.014,0.02-1.645,2.213-1.66,2.236C2.373,11.503,2,12.454,2,13.5C2,15.981,4.019,18,6.5,18
	c1.953,0,3.602-1.258,4.224-3h2.553c0.621,1.742,2.271,3,4.224,3c2.481,0,4.5-2.019,4.5-4.5C22,12.454,21.626,11.503,21.026,10.737z
	 M6.5,16C5.122,16,4,14.879,4,13.5C4,12.122,5.122,11,6.5,11S9,12.122,9,13.5C9,14.879,7.878,16,6.5,16z M17.5,16
	c-1.379,0-2.5-1.121-2.5-2.5c0-1.378,1.121-2.5,2.5-2.5s2.5,1.122,2.5,2.5C20,14.879,18.879,16,17.5,16z" style="fill: rgb(0, 30, 73);"></path>
</svg>