<svg xmlns="http://www.w3.org/2000/svg"  data-name="Layer 1" viewBox="0 0 24 24" preserveAspectRatio="none" style="fill: rgb(0, 30, 73);" width="32" height="32" viewbox="0 0 32 32"><title>tools_equipement_material_black</title><polygon points="22 3.5 19.5 8 17.41 8 13.98 11.43 12.71 12.71 12.42 13 11 11.58 11.29 11.29 12.57 10.02 16 6.59 16 4.5 20.5 2 22 3.5" opacity="0.5" style="fill: rgb(0, 30, 73);"></polygon><path d="M6.89,6.89l4.4,4.4-.29.29L9.71,10.29l-1,1-1.2-1.2a4,4,0,0,1-4.47-.64A4,4,0,0,1,2.42,5L4.33,6.89Z" style="fill: rgb(0, 30, 73);"></path><path d="M19,21.58a4,4,0,0,1-4.48-.64,4,4,0,0,1-.63-4.47l-1.19-1.19,1-1L12.42,13l.29-.29,4.4,4.4v2.56Z" style="fill: rgb(0, 30, 73);"></path><path d="M7.53,10.08a4,4,0,0,1-4.47-.64A4,4,0,0,1,2.42,5L4.33,6.89H6.89l4.4,4.4-.29.29L9.71,10.29l-1,1Zm9.58,9.59V17.11l-4.4-4.4-.29.29,1.29,1.29-1,1,1.19,1.19a4,4,0,0,0,.63,4.47,4,4,0,0,0,4.48.64Zm-9.65-6,2.83,2.82,1.42-1.41L8.88,12.29Z" style="fill: rgb(0, 30, 73);"></path><path d="M2.59,18.58l6.29-6.29-.59-.58,1.42-1.42,4,4-1.42,1.42-.58-.59L5.42,21.41a2,2,0,1,1-2.83-2.83Zm7.49-11L12.57,10l-1.28,1.27-4.4-4.4V4.33L5,2.42a4,4,0,0,1,4.47.64A4,4,0,0,1,10.08,7.53Zm10.86,7a4,4,0,0,0-4.47-.63L14,11.43l-1.27,1.28,4.4,4.4h2.56L21.58,19A4,4,0,0,0,20.94,14.55Z" opacity="0.75" style="fill: rgb(0, 30, 73);"></path></svg>