<svg xmlns="http://www.w3.org/2000/svg" xmlns:xlink="http://www.w3.org/1999/xlink" version="1.1"  x="0px" y="0px" width="32" height="32" viewBox="0 0 24 24" style="fill: rgb(0, 30, 73);" xml:space="preserve" preserveAspectRatio="none" viewbox="0 0 32 32">
<path d="M16,5c-1.66,0-3,1.34-3,3s1.34,3,3,3s3-1.34,3-3S17.66,5,16,5z M16,13c-0.64,0-1.29,0.09-1.9,0.26c1.15,1,1.9,2.29,1.9,3.74  v2h6v-2C22,15,19,13,16,13z M8,13c-3,0-6,2-6,4v2h12v-2C14,15,11,13,8,13z M11,8c0-1.657-1.343-3-3-3S5,6.343,5,8s1.343,3,3,3  S11,9.657,11,8z" style="fill: rgb(0, 30, 73);"></path>
</svg>